/* XPM */
static char *result[] = {
/* columns rows colors chars-per-pixel */
"50 50 219 2 ",
"   c #203F49",
".  c #28434C",
"X  c #294B55",
"o  c #354E55",
"O  c #27505F",
"+  c #3C535B",
"@  c #36535A",
"#  c #30464D",
"$  c #285768",
"%  c #355863",
"&  c #2A5F70",
"*  c #2B6477",
"=  c #336372",
"-  c #396979",
";  c #3F616C",
":  c #44595F",
">  c #465A61",
",  c #495D64",
"<  c #4A6369",
"1  c #486A75",
"2  c #576C72",
"3  c #54737C",
"4  c #5B757D",
"5  c #546B73",
"6  c #63767B",
"7  c #35758A",
"8  c #337B92",
"9  c #387E94",
"0  c #30758C",
"q  c #497886",
"w  c #537783",
"e  c #577C86",
"r  c #417B90",
"t  c #637D85",
"y  c #3A839D",
"u  c #3C8AA5",
"i  c #3C8FAA",
"p  c #368AA7",
"a  c #3C92AD",
"s  c #3790AE",
"d  c #3A94B3",
"f  c #3D9BBB",
"g  c #3B96B5",
"h  c #5C838D",
"j  c #458599",
"k  c #598796",
"l  c #68858C",
"z  c #668C96",
"x  c #778C92",
"c  c #6C969D",
"v  c #69959B",
"b  c #7A9499",
"n  c #73878D",
"m  c #438DA6",
"M  c #4491AB",
"N  c #4B94AD",
"B  c #5798AB",
"V  c #469AB5",
"C  c #569CB2",
"Z  c #508BA0",
"A  c #6999A7",
"S  c #739BA4",
"D  c #659FB1",
"F  c #58A2B8",
"G  c #4FA0B8",
"H  c #7EA4AD",
"J  c #76A1A4",
"K  c #62A1B6",
"L  c #64A5B9",
"P  c #6BA7B9",
"I  c #76A7B5",
"U  c #6EA8B4",
"Y  c #3FA3C5",
"T  c #41A9CC",
"R  c #48A5C4",
"E  c #57ACC6",
"W  c #42ADD2",
"Q  c #43B1D6",
"!  c #46B8DE",
"~  c #59BAD8",
"^  c #5BB4CE",
"/  c #6BADC1",
"(  c #73ADC0",
")  c #74B3C2",
"_  c #7CB6C5",
"`  c #6BB4C9",
"'  c #46BCE4",
"]  c #4ABDE4",
"[  c #51BEE2",
"{  c #7AC4DD",
"}  c #49C3EC",
"|  c #48C1E9",
" . c #5AC4E5",
".. c #57C7EB",
"X. c #4AC7F1",
"o. c #4CCBF5",
"O. c #53CDF6",
"+. c #5BCEF5",
"@. c #5DD0F5",
"#. c #66C8E8",
"$. c #62CEF3",
"%. c #64D1F6",
"&. c #6CD3F6",
"*. c #72D5F6",
"=. c #7AD6F6",
"-. c #7ED8F6",
";. c #85969A",
":. c #818F93",
">. c #8C9FA3",
",. c #859CA2",
"<. c #909DA1",
"1. c #88A4AB",
"2. c #97A6AA",
"3. c #82AFB3",
"4. c #99ADB2",
"5. c #89B3B9",
"6. c #97B7BA",
"7. c #A6B8BB",
"8. c #B2BBBD",
"9. c #A1ACB0",
"0. c #84B6C6",
"q. c #85BBC9",
"w. c #89BCC8",
"e. c #93BECB",
"r. c #96BCC5",
"t. c #A8BDC2",
"y. c #B4BDC0",
"u. c #8AC3CF",
"i. c #85C2CD",
"p. c #92C3CE",
"a. c #9BC3CC",
"s. c #9AC3C6",
"d. c #8BC9D3",
"f. c #94C6D2",
"g. c #93CBD3",
"h. c #9CCDD5",
"j. c #9BC7D2",
"k. c #9ED2D9",
"l. c #97D1D7",
"z. c #A6C4CB",
"x. c #A8C5C8",
"c. c #B9C5C8",
"v. c #AACCD5",
"b. c #A8CDD7",
"n. c #B5CDD3",
"m. c #A4D4DB",
"M. c #ABD4DB",
"N. c #A3DADE",
"B. c #ADDADB",
"V. c #AAD5D4",
"C. c #B3D6DD",
"Z. c #BDD5DB",
"A. c #B3DCDB",
"S. c #BAD4D7",
"D. c #B5E0DE",
"F. c #83D9F6",
"G. c #8CDBF6",
"H. c #94DDF6",
"J. c #9BDEF6",
"K. c #8AD9E9",
"L. c #ACDDE1",
"P. c #A6DDE0",
"I. c #BBDDE1",
"U. c #B6DCE2",
"Y. c #9EE0F6",
"T. c #ABE2E4",
"R. c #B4E4E4",
"E. c #BBE4E5",
"W. c #BCECEB",
"Q. c #B8E8E8",
"!. c #BEF0EE",
"~. c #A3E1F6",
"^. c #ABE3F6",
"/. c #B3E5F6",
"(. c #BCE6F5",
"). c #BCE9F5",
"_. c #B6EEF3",
"`. c #C1CBCD",
"'. c #C0CFD4",
"]. c #CBD3D5",
"[. c #C4DBDC",
"{. c #C6D5D8",
"}. c #D4DBDD",
"|. c #C5DDE2",
" X c #D7DFE1",
".X c #C1E3E3",
"XX c #C2ECEB",
"oX c #CBEDEC",
"OX c #C8E6E6",
"+X c #D4E2E3",
"@X c #DCE2E3",
"#X c #D3EDEC",
"$X c #DDEEED",
"%X c #D5E7E9",
"&X c #C3F1EE",
"*X c #C9F1EE",
"=X c #D4F1EF",
"-X c #DBF0EF",
";X c #C3EAF6",
":X c #CBECF6",
">X c #D4EDF6",
",X c #DBEFF6",
"<X c #C5F6F2",
"1X c #CBF5F1",
"2X c #D3F4F1",
"3X c #DCF4F3",
"4X c #E1EEED",
"5X c #EBEDEE",
"6X c #E2E5E7",
"7X c #E2F0EF",
"8X c #E4EFF0",
"9X c #E9EFF1",
"0X c #E3F3F4",
"qX c #EBF3F4",
"wX c #EEF7F8",
"eX c #F2F5F5",
"rX c #F6F9FA",
"tX c #FFFFFF",
"yX c #F1F6F8",
/* pixels */
"tXtXtXtXtXtXtXtXtXtXtXtXtXtXtXtXtXtXtX5X5X5XtXeX5XeXeXeXrXtXtXtXtXtXtXtXtXtXtXtXtXtXtXtXtXtXtXtXtXtX",
"tXtXtXtXtXtXtXtXtXtXtXtXtXtXtXeXeX6Xc.:.4 x 2.2.>.>.<.<.9.y.c.}.6XqXeXrXrXtXtXtXtXtXtXtXtXtXtXtXtXtX",
"tXtXtXtXtXtXtXtXtXtXtXtXtXrX6X`.;.2 + # @ w z k k h e e 3 t t x n x ;.4.c.6XeXtXtXtXtXtXtXtXtXtXtXtX",
"tXtXtXtXtXtXtXtXtXtXrX5X].9.6 + o + 2 b 7.8.x.v.v.e.0.I A B Z v z n n 6 t n 8.eXtXtXtXtXtXtXtXtXtXtX",
"tXtXtXtXtXtXtXtXtX@X8.:.< @ + 5 x 1.b t 3 3 l 7.:X!._._.;XXXU.P.g.w.5.3.c 4 n S.5XrXtXtXtXtXtXtXtXtX",
"tXtXtXtXtXtXrX@X9.6 > , 4 b s.>.1 1 q G E E ^ #.#.$.%.&.K.K.d.m.!.&X!.Q.B.5.c h 1.+XrXtXtXtXtXtXtXtX",
"tXtXtXtXtXeXy.6 , 2 ;.6.{.+Xy.X * T Q ! ! ] | } X.o.X...| R i - V.&X<X<X&XR.V.v 1 z n.rXtXtXtXtXtXtX",
"tXtXtXtX5X<., > b 6.B.-X4X-X'.5 = d Q ! | | } } | | ] ] Q f 8 e D.<X<X<X<X&X<XE.A % q n.rXtXtXtXtXtX",
"tXtXtX5X<.: 2 9.B.XX=X-X-X-X$X{.2.k M R T T T Y f a y y - 3 I Q.<X<X<X<X<X<X<X1XXXv % 1 n.rXtXtXtXtX",
"tXtX5X2.< 2 8..X&X&X&X=X-X-X4X$X+X Xn.x.6.I J v v c J 3.s.T.!.<X<X<X<X<X<X<X1X1X2XE.k % t  XtXtXtXtX",
"tXtX8.> 2 9.+X=X!.!.<X<X<X1X-X7X7X-X-X$X*X&X!.!.!.!.&X!.!.<X<X<X<X<X<X<X1X1X3X0XwX3Xp.k % ,.8XtXtXtX",
"tX}.2 , 6.OX-X-X*XW.!.&X<X1X*X-X-X-X-X-X-X=X=X*X1X1X*X1X<X<X<X<X<X<X1X2X3XwXyXyX0X.Xj.f.k , y.tXtXtX",
"eX:.: ;..X-X7X-X*XW.W.<X2X3X2X-X-X0X0X7X7X7X-X-X-X-X=X=X2X<X<X<X<X2X0XqXeXqX5XoXU.L.;XXXe.3 e 5XtXtX",
"}.> 6 A.=X4X7X-XW.N.T.oX3XqXeXwXeXeXeXeXeXqX3X3X-X3X2X2X<X<X&XW.B.M.I.|.C.a.0.e.E.<X1X1XW.r.w +XtXtX",
"8.# 6 D.4X-X-X*XE.) ( k.XX,X$X7X7X7X7XqXqX$XXXW.&X1XW.Q.B.g.5._ _ 0.j..X|.I.b.q.T.1X1X2X1X.Xz t.rXtX",
"2.# b +X4X4X=X&XN.P 0.W.<X<X&XE.R.E.D.-X-X7X#XoX<X<X<X<X<XT.h.g.j.C.#X,X$X4X%X_ h.2X1X1X1X1XH S qXtX",
"9.o 5.%X7X3X<X!.u.F k.!.<X<X<X<X1X<X<X2X-X-X=X-X2X<X<X<X<X<X<X<X2X2X2X2X1X3X-Xv.k.3X3X1X2X1Xs.z $XtX",
"9., V.7X-X1X<XD.L ) !.<X<X<X<X<X<X<X<X1X=X=X=X-X=X<X<X<X<X<X<X<X1X<X<X<X<X3XwXZ.T.3X3X1X3X1XB.z [.tX",
"2.4 [.7X-X<X!.k.F l.!.<X<X<X<X<X<X<X<X<X&X&X1X-X=X<X<X<X<X<X<X1X<X<X<X<X1X3XrX.XQ.3X3X3X1X1XE.l t.yX",
"2.l OX7X*X<XW.i.P N.<X<X<X<X<X<X<X&XW.B.V.6.6.6.x.s.s.s.V.B.D.1X<X<X<X<X1X0XwX*XB.2X2X3X2X1XXXA S 9X",
"1.J oX=XD.P.T.d.k.W.!.<X<X<X<X&XD.6.h 1 @ X X X       . & 0 m ) W.<X<X<X1X3XyX2Xk.W.2X2X1X<XOXH e 6X",
"4.J #X<XW.l.i.d.T.Q.!.!.<X*XV.C y & O O $ & * * * $ $ O O = y u ( Q.<X<X<X2XqX2Xd.T.<X<X&XE.q.j w |.",
"t.5.#X<X<XW.N.d.{ d.l.P.E.u.Z y = * 0 0 y s f Y Y g d p u C B m u F R.1X<X<X1X<Xi.u.!.!.m.F M D w |.",
"x.x.oX=X=X2X<XW.T.k.l.l.i.y 7 0 y s Q Q | X.O.%.*.$.X.] #.d.V M u p N N.1X<X<X<Xh.i.p._ C C w.z.w Z.",
"z.V.*X1X-X-X-X=X1X1X<XE.Z 0 8 p Q ] o.o.o.o.%.G.H.%.O.&.Y.=.] T Y a u N h.1X2X1Xi.L L ) g.L.&XD.c v.",
"a.B.1X<X1X2X1X=X-X=X&Xi.0 y g ' o.o.o.o.o.%.G.~.=.$.*.~.~.%.o.X. .{ L M N e.Z.f.u.T.&X<X<X!.<XD.0.t.",
"a.R.1X<X<X<X<X1X=X=X!.B 8 g ' o.o.o.o.o.+.G.^.J.&.&.J.(.=.O.O.$.Y.(.` M N L |.:X<X1X1X*X1X!.1XD.0.r.",
"m.XX*X1X<X<X<X<X<X&XN.y s ' X.o.o.o.o.o.=.^.~.&.&.H.;XY.%.O.*./.>X^.| g M N M.1X<X2X0X-X-XXX*XD.1.0.",
"m.!.<X<X<X<X<X<X&XW.P u Y o.o.o.o.o.o.*.~.^.*.%.H.>X>X;XY.H.:X,X:X&.} Y i N g.<X<X2XwX7X=XW.2XV.1.I ",
"m.!.<X<X<X<X<X<X:Xf.i f o.o.o.o.o.o.%.J./.=.%.F.;X>X0X0X;X:X,X,XF.o.o.' V i ) <X1X3X0X7X=X&X1XB.S I ",
"M.W.<X<X<X<X<X<X;XC s Y o.o.o.o.o.+.H.^.G.+.*.(.,X9XwX,X>X,X0XJ.O.o.o.} R i ) <X1X0X2X7X2XW.*XA.c I ",
"M.W.<X<X<X<X<X<XQ.i d ' o.o.o.o.O.F.^.G.+.&./.>X0XqX0X:X>X,X/.+.o.o.o.+.~ M ) <X3X2X1X7X=XXX<XV.z I ",
"M.W.1X<X<X<X<X<XD.M f X.o.o.o.o.&.Y.Y.%.%.Y.>X,XwXqX:X(.>X/.%.o.o.o.O.%.#.V ) <X2X1X2X7X=XQ.<XB.z I ",
"C.E..X[.OX*X<X<XT.M W X.o.o.o.@.F.Y.%.+.G.).:X0X0X:X^.~.Y.%.o.o.o.O.%.*.$.R P <X<X<X*X7X=Xk.&Xb.e H ",
"b.P..Xx.4.x.S.D.P.V ! X.o.o.O.*.G.&.O.&.(./.>X0X:X/.=.G.%.O.o.o.O.@.*.*.@.T C ).<X<X1X2XoX_ h.U 7 D ",
"b.I XX.Xt.>.b ;.5.a | X.o.o.@.=.*.O.%.~./.F.:X).F.&.G.&.O.o.o.o.O.&.=.*.O.Y a k.<X1X1X1Xm.( L S k I ",
"OXP R.<X<X.XZ.n.p.g } X.o.O.%.&.O.O.F.(.*.%.G.&.+.F.*.O.o.o.o.o.%.F.=.@.o.' p ( U.A.j.N.W.oXoX[.A 0.",
"%X0.R.<X<X<X2X=XN.Y } X.o.O.@.O.O.&.~.F.O.O.o.O.*.-.+.o.o.o.o.%.*.-.%.O.X.' s D b.b.&X1X*X2X3XS.S e.",
"I./ U.<X<X<X1X2Xk.Y X.o.o.o.o.o.@.G.G.O.o.O.O.%.F.+.o.o.o.o.+.*.F.*.O.o.X.' s ( OX2X<X1X=X=XoXz.S v.",
"%Xq.k.;X<X<X1X1Xg.Y o.o.o.o.o.@.*.F.%.O.o.o.+.F.+.o.o.o.o.o.&.-.*.+.O.o.X.' s f.=X1X1X*X=XoX[.c.z n.",
"yXb.0.E.1X<X<X<Xl.f } o.o.o.o.%.F.%.O.o.o.O.*.%.o.o.o.X.o.%.=.F.@.O.o.o.X.' a L.1X<X*X=X+X@X].y.'.qX",
"tX%X( 0.W.<X<X1X{ g | o.o.o.O.&.%.o.o.o.O.*.%.O.o.o.X.o.+.&.=.&.O.o.o.X.X.| V N.XXXXoX+X}.{.n.@XrXtX",
"tXyXz.D D h.&X2XD g ] o.O.o.@.@.O.o.o.o.%.%.O.o.o.o.o.O.%.=.=.+.o.o.O.X.} X.R l.v.x.`. XZ.Z.$XrXtXtX",
"tXtX X1.q j D r.D V ..O.@.O.o.o.o.o.o.+.&.O.o.o.o.o.o.+.*.=.+.X.o.o.o.} } X.F I 5.x.n.v.A.$XrXtXtXtX",
"tXtXtX6X4.3 = 7 j a  .O.@.@.O.@.O.O.+.%.O.X.o.o.o.o.O.%.F.%.o.O.O.@.+. .^ E q c w.g.k..XwXtXtXtXtXtX",
"tXtXtXtXeX].1.4 1 = a ! X.O.O.O.+.+.%.+.O.o.o.X.o.o.+.*.&.O.O..... .^ B h v 3.g.M.OXqXrXtXtXtXtXtXtX",
"tXtXtXtXtXtXrX@Xc.>.l e j N G W ~ [ ..' ' ' ] X.' ..#.*...~ E G B B J 5.z.I.#XqXyXrXtXtXtXtXtXtXtXtX",
"tXtXtXtXtXtXtXtXrXeX5X@X].].].x.r.,.z e q r r y m C ( C B U 5.a.S.OX-X0XrXrXtXtXtXtXtXtXtXtXtXtXtXtX",
"tXtXtXtXtXtXtXtXtXtXtXtXtXtXtXtXrX5X6X@X].`.y.c.`.6X5X9XeXeXrXtXtXtXtXtXtXtXtXtXtXtXtXtXtXtXtXtXtXtX",
"tXtXtXtXtXtXtXtXtXtXtXtXtXtXtXtXtXtXtXtXrXtXeXeXeXtXtXtXtXtXtXtXtXtXtXtXtXtXtXtXtXtXtXtXtXtXtXtXtXtX"
};
