/* XPM */
static char *result[] = {
/* columns rows colors chars-per-pixel */
"50 50 174 2 ",
"   c #040C0E",
".  c #030606",
"X  c #050E13",
"o  c #081419",
"O  c #06191F",
"+  c #071F26",
"@  c #0C1B20",
"#  c #062029",
"$  c #0B232C",
"%  c #0C2731",
"&  c #0E2A34",
"*  c #0D2F3A",
"=  c #0E323F",
"-  c #11323D",
";  c #232F32",
":  c #273337",
">  c #303A3D",
",  c #383C3B",
"<  c #143A47",
"1  c #133E4C",
"2  c #193A46",
"3  c #2D3E43",
"4  c #174555",
"5  c #1A4756",
"6  c #17495A",
"7  c #1C4C5C",
"8  c #2B4148",
"9  c #24444F",
"0  c #39555E",
"q  c #164F62",
"w  c #1D4F60",
"e  c #1D5264",
"r  c #1D5668",
"t  c #1E5A6D",
"y  c #1E5B70",
"u  c #165B72",
"i  c #225364",
"p  c #205669",
"a  c #215A6D",
"s  c #28596A",
"d  c #235E72",
"f  c #1E647C",
"g  c #236175",
"h  c #2C6173",
"j  c #25657B",
"k  c #28667B",
"l  c #26697E",
"z  c #2A697D",
"x  c #366677",
"c  c #405052",
"v  c #415F69",
"b  c #40626C",
"n  c #4B6F7A",
"m  c #697779",
"M  c #1E6780",
"N  c #1A6A84",
"B  c #1E6F89",
"V  c #266B82",
"C  c #296E84",
"Z  c #276F88",
"A  c #336E81",
"S  c #2B7186",
"D  c #25718B",
"F  c #2B748C",
"G  c #34758B",
"H  c #33788F",
"J  c #2C7790",
"K  c #267893",
"L  c #2D7993",
"P  c #2E7E99",
"I  c #347C94",
"U  c #397F97",
"Y  c #337F99",
"T  c #387F98",
"R  c #4E7987",
"E  c #407889",
"W  c #577680",
"Q  c #507985",
"!  c #5A7880",
"~  c #517D8B",
"^  c #607D84",
"/  c #2F819B",
"(  c #3A8096",
")  c #33839D",
"_  c #3C839A",
"`  c #3286A2",
"'  c #3489A5",
"]  c #3B8AA4",
"[  c #348DAB",
"{  c #3A8EA9",
"}  c #3C86A1",
"|  c #3590AE",
" . c #3B92AE",
".. c #3693B2",
"X. c #3B96B5",
"o. c #3C98B7",
"O. c #3A9BBB",
"+. c #41869C",
"@. c #44899F",
"#. c #488A9F",
"$. c #598795",
"%. c #448BA3",
"&. c #4C8EA3",
"*. c #4D91A6",
"=. c #4492AC",
"-. c #4D95AC",
";. c #5392A6",
":. c #5296AC",
">. c #5997AA",
",. c #5499AE",
"<. c #5B99AC",
"1. c #4094B0",
"2. c #469AB5",
"3. c #499DB6",
"4. c #439DBA",
"5. c #4A9EBA",
"6. c #539CB3",
"7. c #5C9CB1",
"8. c #6F99A6",
"9. c #629DAE",
"0. c #6E9DAC",
"q. c #639EB0",
"w. c #42A1BF",
"e. c #4EA1BD",
"r. c #5EA6BD",
"t. c #7CA4AF",
"y. c #67A0B2",
"u. c #6CA3B4",
"i. c #69A6B9",
"p. c #63A8BE",
"a. c #6DABBD",
"s. c #65A6B9",
"d. c #73AABB",
"f. c #79ADBC",
"g. c #7DB0BE",
"h. c #3B9FC0",
"j. c #3DA2C3",
"k. c #3FA7C9",
"l. c #3FABCE",
"z. c #3FACD1",
"x. c #43A4C4",
"c. c #4CA5C3",
"v. c #41A6C8",
"b. c #4EABCA",
"n. c #41A9CC",
"m. c #58A7C1",
"M. c #56ACC8",
"N. c #41ADD1",
"B. c #40B1D6",
"V. c #42B4DA",
"C. c #69ACC0",
"Z. c #66ADC4",
"A. c #6DB8CF",
"S. c #65B5CD",
"D. c #74B2C6",
"F. c #7CB3C2",
"G. c #69BAD3",
"H. c #74BED6",
"J. c #80A6B1",
"K. c #9EB7BB",
"L. c #83B5C3",
"P. c #89B9C6",
"I. c #89BDCC",
"U. c #9DBEC5",
"Y. c #87C4D5",
"T. c #92C9D9",
"R. c #98C8D6",
"E. c #A8C6CB",
"W. c #AFCDD3",
"Q. c #BDD7DA",
"!. c #BCD9DF",
"~. c #C9E8ED",
"^. c #F5EDED",
"/. c None",
/* pixels */
"^.^.^.^.^.^.^.^.^.^.^.^.^.^.^.^.^.^.^.^.^.^.^.^.^.^.^.^.^.^.^.^.^.^.^.^.^.^.^.^.^.^.^.^.^.^.^.^.^.^.",
"^.^.^.^.^.^.^.^.^.^.^.^.^.^.^.^.^.^.^.^.^.^.^.^.^.^.^.^.^.^.^.^.^.^.^.^.^.^.^.^.^.^.^.^.^.^.^.^.^.^.",
"^.^.^.^.^.^.^.^.^.^.^.^.^.^.^.^.^.^.^.^.^.^.^.^.^.^.^.^.^.^.^.^.^.^.^.^.^.^.^.^.^.^.^.^.^.^.^.^.^.^.",
"^.^.^.^.^.^.^.^.^.^.^.^.^.^.^.^.^.^.^.^.^.^.^.^.^.^.^.^.^.^.^.^.^.^.^.^.^.^.^.^.^.^.^.^.^.^.^.^.^.^.",
"^.^.^.^.^.^.^.^.^.^.^.^.^.^.^.^.^.^.^.^.^.^.^.^.^.^.^.^.^.^.^.^.^.^.^.^.^.^.^.^.^.^.^.^.^.^.^.^.^.^.",
"^.^.^.^.^.^.^.^.^.^.^.^.^.^.^.^.^.^.^.^.^.^.^.^.^.^.^.^.^.^.^.^.^.^.^.^.^.^.^.^.^.^.^.^.^.^.^.^.^.^.",
"^.^.^.^.^.^.^.^.^.^.^.^.^.^.^.^.^.^.^.^.^.^.^.^.^.^.^.^.^.^.^.^.^.^.^.^.^.^.^.^.^.^.^.^.^.^.^.^.^.^.",
"^.^.^.^.^.^.^.^.^.^.^.^.^.^.^.^.^.^.^.^.^.^.^.^.^.^.^.^.^.^.^.^.^.^.^.^.^.^.^.^.^.^.^.^.^.^.^.^.^.^.",
"^.^.^.^.^.^.^.^.^.^.^.^.^.^.^.^.^.^.^.^.^.^.^.^.^.^.^.^.^.^.^.^.^.^.^.^.^.^.^.^.^.^.^.^.^.^.^.^.^.^.",
"^.^.^.^.^.^.^.^.^.^.^.^.^.^.^.^.^.^.^.^.^.^.^.^.^.^.^.^.^.^.^.^.^.^.^.^.^.^.^.^.^.^.^.^.^.^.^.^.^.^.",
"^.^.^.^.^.^.^.^.^.^.^.^.^.^.^.^.^.^.^.^.^.^.^.^.^.^.^.^.^.^.^.^.^.^.^.^.^.^.^.^.^.^.^.^.^.^.^.^.^.^.",
"^.^.^.^.^.^.^.^.^.^.^.^.^.^.^.^.^.^.^.^.^.^.^.^.^.^.^.^.^.^.^.^.^.^.^.^.^.^.^.^.^.^.^.^.^.^.^.^.^.^.",
"^.^.^.^.^.^.^.^.^.^.^.^.^.^.^.^.^.^.^.^.^.^.^.^.^.^.^.^.7 i 7 w ^.^.^.^.^.^.^.^.^.^.^.^.^.^.^.^.^.^.",
"^.^.^.^.^.^.^.^.^.^.^.^.^.^.^.^.^.^.^.^.^.V i d a e 7 5 e 7 7 e w ^.^.^.^.^.^.^.^.^.^.^.^.^.^.^.^.^.",
"^.^.^.^.^.^.^.^.^.^.^.^.^.^.^.^.Y ' ` P V F P / [ ..` j g /./.w w ^.^.^.^.^.^.^.^.^.^.^.^.^.^.^.^.^.",
"^.^.^.^.^.^.^.^.^.^.^.^.^.j L [ ` [ j.O.O.[ ......o.j.j.P d e i ^.^.^.^.^.^.^.^.^.^.^.^.^.^.^.^.^.^.",
"^.^.^.^.^.^.^.^.^.^.^.d L ` v.o.r h _ O.z...F C F P I 2.3.V p a a ^.^.^.^.^.^.^.^.^.^.^.^.^.^.^.^.^.",
"^.^.^.^.^.^.^.^.^.d L [ ..O.c.6.9 ; b ..V.) F Z J ) ) ] 1.*.F d r e ^.^.^.^.^.^.^.^.^.^.^.^.^.^.^.^.",
"^.^.^.^.^.^.^.^.d d w C J C _ &.Q > 8 ) k.[ J L ) =.=._ +.a.p.6.G a s ^.^.^.^.^.^.^.^.^.^.^.^.^.^.^.",
"^.^.^.^.^.^.Z F k 2   : v = C U 8.c i F ' L J F I ( ;.>.>.9.i.Z.D.:.A e ^.^.^.^.^.^.^.^.V V f N ^.^.",
"^.^.^.^.^.L [ [ r 0 , m U.~ Z I W x C F F J J L L {  .,.i.P.g.a.T.T.s.G a ^.^.^.^.^.Z d j a a f N ^.",
"^.^.^.^.V h.z.[ i ^ K.!.~.L.L k h G L L J J L ' {  ...) &.u.;.q.D.R.Y.p._ j i ^.^.g g j j z d f N ^.",
"^.^.e e P z.l.O.y m E.Q.W.q.J s k J J L J J Y j.v.x.=.%.u.>.( _ @.L.I.Y.F.%.k j g F F L J F S B ^.^.",
"^.^.p r F X.h.[ V h n $.$.J F a F J J J J J L ` O.j. .:.F.>.&.*.>.g.F.d.R.D.U l F L P J J D f ^.^.^.",
"^.^.z a a l L ) J Z C C D P d a L L I F L F I I ) [ O.2.9.+.@.+.*.J.a.y.9.y._ V J J J Z e 1 ^.^.^.^.",
"^.^.^.V a r / ' ` P F L ` / w d J F J L J L U +.+._ _ a.>.I ( &.y.f.>.@.+.I l a S L V # = O ^.^.^.^.",
"^.^.^.f k S X.O.j.X.` ) X.` w V F L F L J J I _ ;.q.y.P.9.d.u.<.P.d._ +.9.+.F z P ` 7 O # ^.^.^.^.^.",
"^.^.^.^.M D O.j.l.z.h...M.-.a F J J L L J J F L I _ y.u.&.#.%.<.9._ I %.f.3.w.) | O.l % # ^.^.^.^.^.",
"^.^.^.^.f j ` h.N.z.z.N.G.:.d S F F J L J +.+.( F I ;.I F I I >.-._ I I @./ [ | X.| / 6 & % ^.^.^.^.",
"^.^.^.^.^.f Z ' w.N.z.N.H.] a l L Y F L I @.>.*.I #.&.U U %.6.p.3.| F V a z a F O.O./ Z 4 4 ^.^.^.^.",
"^.^.^.^.^.^.f S ' w.k.b.A.` r V _ &.z I ` ] 7.&.&.,.-.-.2.m.S.c.h.L S z ) ( e 5 Z ` ' ) / V u ^.^.^.",
"^.^.^.^.^.^.^.j C ` w.m.M.) i l @.0.$.C ..o.4.=.3.5.4.w.b.M.x.O.I S F z ( X.l 7 e g ` | ' / f ^.^.^.",
"^.^.^.^.^.^.^.^.l Z ( 2.c./ r z ( 0.t.E | N.j.j.j.h.j.k.x.w.2.S z S i h ^.^.^.^.^.7 d J / / D N ^.^.",
"^.^.^.^.^.^.^.^.^.Z D ] w.H a l F ;.J.n I k.l.l.j.j.k.O.| L F i z 4 ^.^.^.^.^.^.^.^.^.g F F D ^.^.^.",
"^.^.^.^.^.^.^.^.^.^.^.K K V a z V H Q 8 s ' o.X.O.O.' ) j j 7 r q ^.^.^.^.^.^.^.^.^.^.^.^.J ^.^.^.^.",
"^.^.^.^.^.^.^.^.^.^.^.^.^.f e < w a 5 O < V D f t t t g 4 4 = ^.^.^.^.^.^.^.^.^.^.^.^.^.^.^.^.^.^.^.",
"^.^.^.^.^.^.^.^.^.^.^.^.^.^.e = % = < o $ 6 7 ^.^.^.^.^.^.^.^.^.^.^.^.^.^.^.^.^.^.^.^.^.^.^.^.^.^.^.",
"^.^.^.^.^.^.^.^.^.^.^.^.^.^.^.^.X     . ^.^.^.^.^.^.^.^.^.^.^.^.^.^.^.^.^.^.^.^.^.^.^.^.^.^.^.^.^.^.",
"^.^.^.^.^.^.^.^.^.^.^.^.^.^.^.^.^.^.^.^.^.^.^.^.^.^.^.^.^.^.^.^.^.^.^.^.^.^.^.^.^.^.^.^.^.^.^.^.^.^.",
"^.^.^.^.^.^.^.^.^.^.^.^.^.^.^.^.^.^.^.^.^.^.^.^.^.^.^.^.^.^.^.^.^.^.^.^.^.^.^.^.^.^.^.^.^.^.^.^.^.^.",
"^.^.^.^.^.^.^.^.^.^.^.^.^.^.^.^.^.^.^.^.^.^.^.^.^.^.^.^.^.^.^.^.^.^.^.^.^.^.^.^.^.^.^.^.^.^.^.^.^.^.",
"^.^.^.^.^.^.^.^.^.^.^.^.^.^.^.^.^.^.^.^.^.^.^.^.^.^.^.^.^.^.^.^.^.^.^.^.^.^.^.^.^.^.^.^.^.^.^.^.^.^.",
"^.^.^.^.^.^.^.^.^.^.^.^.^.^.^.^.^.^.^.^.^.^.^.^.^.^.^.^.^.^.^.^.^.^.^.^.^.^.^.^.^.^.^.^.^.^.^.^.^.^.",
"^.^.^.^.^.^.^.^.^.^.^.^.^.^.^.^.^.^.^.^.^.^.^.^.^.^.^.^.^.^.^.^.^.^.^.^.^.^.^.^.^.^.^.^.^.^.^.^.^.^.",
"^.^.^.^.^.^.^.^.^.^.^.^.^.^.^.^.^.^.^.^.^.^.^.^.^.^.^.^.^.^.^.^.^.^.^.^.^.^.^.^.^.^.^.^.^.^.^.^.^.^.",
"^.^.^.^.^.^.^.^.^.^.^.^.^.^.^.^.^.^.^.^.^.^.^.^.^.^.^.^.^.^.^.^.^.^.^.^.^.^.^.^.^.^.^.^.^.^.^.^.^.^.",
"^.^.^.^.^.^.^.^.^.^.^.^.^.^.^.^.^.^.^.^.^.^.^.^.^.^.^.^.^.^.^.^.^.^.^.^.^.^.^.^.^.^.^.^.^.^.^.^.^.^.",
"^.^.^.^.^.^.^.^.^.^.^.^.^.^.^.^.^.^.^.^.^.^.^.^.^.^.^.^.^.^.^.^.^.^.^.^.^.^.^.^.^.^.^.^.^.^.^.^.^.^.",
"^.^.^.^.^.^.^.^.^.^.^.^.^.^.^.^.^.^.^.^.^.^.^.^.^.^.^.^.^.^.^.^.^.^.^.^.^.^.^.^.^.^.^.^.^.^.^.^.^.^.",
"^.^.^.^.^.^.^.^.^.^.^.^.^.^.^.^.^.^.^.^.^.^.^.^.^.^.^.^.^.^.^.^.^.^.^.^.^.^.^.^.^.^.^.^.^.^.^.^.^.^."
};
