/* XPM */
static char *result[] = {
/* columns rows colors chars-per-pixel */
"50 50 172 2 ",
"   c #040C0E",
".  c #020606",
"X  c #050E12",
"o  c #081419",
"O  c #06181E",
"+  c #051920",
"@  c #0A1D24",
"#  c #072029",
"$  c #0B232C",
"%  c #0C2731",
"&  c #0E2A34",
"*  c #0D2F3A",
"=  c #0E323F",
"-  c #11323D",
";  c #232F32",
":  c #273337",
">  c #303A3D",
",  c #383C3B",
"<  c #143947",
"1  c #193A46",
"2  c #133E4C",
"3  c #2D3E43",
"4  c #174555",
"5  c #1A4756",
"6  c #174B5C",
"7  c #1C4C5C",
"8  c #2B4148",
"9  c #24444F",
"0  c #39555E",
"q  c #174F62",
"w  c #1D4F60",
"e  c #1E5264",
"r  c #1E5669",
"t  c #1D586A",
"y  c #175B71",
"u  c #1E5B70",
"i  c #225364",
"p  c #205669",
"a  c #215A6D",
"s  c #28596A",
"d  c #225E72",
"f  c #1E647C",
"g  c #236175",
"h  c #2C6173",
"j  c #25657B",
"k  c #29667B",
"l  c #26697E",
"z  c #2A697D",
"x  c #366677",
"c  c #405052",
"v  c #415F69",
"b  c #40626C",
"n  c #4B6F7A",
"m  c #697779",
"M  c #1A6A84",
"N  c #1E6F89",
"B  c #266B82",
"V  c #296D84",
"C  c #276E88",
"Z  c #336E81",
"A  c #2B7186",
"S  c #25718A",
"D  c #2B748C",
"F  c #34758B",
"G  c #33788F",
"H  c #2C7790",
"J  c #277893",
"K  c #2D7993",
"L  c #2E7E99",
"P  c #347C94",
"I  c #3A7F96",
"U  c #337F9A",
"Y  c #387F98",
"T  c #4E7987",
"R  c #407889",
"E  c #577680",
"W  c #507985",
"Q  c #5A7880",
"!  c #517D8B",
"~  c #607D84",
"^  c #2F819B",
"/  c #3A8096",
"(  c #33839D",
")  c #3C839A",
"_  c #3286A2",
"`  c #3489A5",
"'  c #3B8AA4",
"]  c #348DAB",
"[  c #3A8EA9",
"{  c #3C86A1",
"}  c #3590AE",
"|  c #3B92AE",
" . c #3693B2",
".. c #3A96B5",
"X. c #3C98B7",
"o. c #3A9BBB",
"O. c #41869C",
"+. c #44899F",
"@. c #488A9F",
"#. c #598795",
"$. c #448BA3",
"%. c #4C8EA3",
"&. c #4D91A6",
"*. c #4492AC",
"=. c #4D95AC",
"-. c #5392A6",
";. c #5296AC",
":. c #5997AA",
">. c #5499AE",
",. c #5B99AC",
"<. c #4094B0",
"1. c #469AB5",
"2. c #499DB6",
"3. c #439DBA",
"4. c #4A9EBA",
"5. c #539CB3",
"6. c #5C9CB1",
"7. c #6F99A6",
"8. c #629DAE",
"9. c #6E9DAC",
"0. c #639EB0",
"q. c #42A1BF",
"w. c #4EA1BD",
"e. c #5EA6BD",
"r. c #7CA4AF",
"t. c #67A0B2",
"y. c #6CA3B4",
"u. c #69A6B9",
"i. c #63A8BE",
"p. c #6DABBD",
"a. c #65A6B9",
"s. c #73AABB",
"d. c #79ADBC",
"f. c #7DB0BE",
"g. c #3B9FC0",
"h. c #3DA2C3",
"j. c #3FA7C9",
"k. c #3FABCE",
"l. c #3FACD1",
"z. c #43A4C4",
"x. c #4CA5C3",
"c. c #41A6C8",
"v. c #4EABCA",
"b. c #41A9CC",
"n. c #58A7C1",
"m. c #56ACC8",
"M. c #41ADD1",
"N. c #40B1D6",
"B. c #42B4DA",
"V. c #69ACC0",
"C. c #66ADC4",
"Z. c #6DB8CF",
"A. c #65B5CD",
"S. c #74B2C6",
"D. c #7CB3C2",
"F. c #69BAD3",
"G. c #74BED6",
"H. c #80A6B1",
"J. c #9EB7BB",
"K. c #83B5C3",
"L. c #89B9C6",
"P. c #89BDCC",
"I. c #9DBEC5",
"U. c #87C4D5",
"Y. c #92C9D9",
"T. c #98C8D6",
"R. c #A8C6CB",
"E. c #AFCDD3",
"W. c #BDD7DA",
"Q. c #BCD9DF",
"!. c #C9E8ED",
"~. c None",
/* pixels */
"~.~.~.~.~.~.~.~.~.~.~.~.~.~.~.~.~.~.~.~.~.~.~.~.~.~.~.~.~.~.~.~.~.~.~.~.~.~.~.~.~.~.~.~.~.~.~.~.~.~.",
"~.~.~.~.~.~.~.~.~.~.~.~.~.~.~.~.~.~.~.~.~.~.~.~.~.~.~.~.~.~.~.~.~.~.~.~.~.~.~.~.~.~.~.~.~.~.~.~.~.~.",
"~.~.~.~.~.~.~.~.~.~.~.~.~.~.~.~.~.~.~.~.~.~.~.~.~.~.~.~.~.~.~.~.~.~.~.~.~.~.~.~.~.~.~.~.~.~.~.~.~.~.",
"~.~.~.~.~.~.~.~.~.~.~.~.~.~.~.~.~.~.~.~.~.~.~.~.~.~.~.~.~.~.~.~.~.~.~.~.~.~.~.~.~.~.~.~.~.~.~.~.~.~.",
"~.~.~.~.~.~.~.~.~.~.~.~.~.~.~.~.~.~.~.~.~.~.~.~.~.~.~.~.~.~.~.~.~.~.~.~.~.~.~.~.~.~.~.~.~.~.~.~.~.~.",
"~.~.~.~.~.~.~.~.~.~.~.~.~.~.~.~.~.~.~.~.~.~.~.~.~.~.~.~.~.~.~.~.~.~.~.~.~.~.~.~.~.~.~.~.~.~.~.~.~.~.",
"~.~.~.~.~.~.~.~.~.~.~.~.~.~.~.~.~.~.~.~.~.~.~.~.~.~.~.~.~.~.~.~.~.~.~.~.~.~.~.~.~.~.~.~.~.~.~.~.~.~.",
"~.~.~.~.~.~.~.~.~.~.~.~.~.~.~.~.~.~.~.~.~.~.~.~.~.~.~.~.~.~.~.~.~.~.~.~.~.~.~.~.~.~.~.~.~.~.~.~.~.~.",
"~.~.~.~.~.~.~.~.~.~.~.~.~.~.~.~.~.~.~.~.~.~.~.~.~.~.~.~.~.~.~.~.~.~.~.~.~.~.~.~.~.~.~.~.~.~.~.~.~.~.",
"~.~.~.~.~.~.~.~.~.~.~.~.~.~.~.~.~.~.~.~.~.~.~.~.~.~.~.~.~.~.~.~.~.~.~.~.~.~.~.~.~.~.~.~.~.~.~.~.~.~.",
"~.~.~.~.~.~.~.~.~.~.~.~.~.~.~.~.~.~.~.~.~.~.~.~.~.~.~.~.~.~.~.~.~.~.~.~.~.~.~.~.~.~.~.~.~.~.~.~.~.~.",
"~.~.~.~.~.~.~.~.~.~.~.~.~.~.~.~.~.~.~.~.~.~.~.~.~.~.~.~.~.~.~.~.~.~.~.~.~.~.~.~.~.~.~.~.~.~.~.~.~.~.",
"~.~.~.~.~.~.~.~.~.~.~.~.~.~.~.~.~.~.~.~.~.~.~.~.~.~.~.~.7 e 7 e ~.~.~.~.~.~.~.~.~.~.~.~.~.~.~.~.~.~.",
"~.~.~.~.~.~.~.~.~.~.~.~.~.~.~.~.~.~.~.~.~.B p d a e 7 5 e 7 7 7 w ~.~.~.~.~.~.~.~.~.~.~.~.~.~.~.~.~.",
"~.~.~.~.~.~.~.~.~.~.~.~.~.~.~.~.L ` _ L B D L ^ ] .._ j g ~.~.i w ~.~.~.~.~.~.~.~.~.~.~.~.~.~.~.~.~.",
"~.~.~.~.~.~.~.~.~.~.~.~.~.j K ] _ ] h.o.o.]  . . ...g.j.L u i e ~.~.~.~.~.~.~.~.~.~.~.~.~.~.~.~.~.~.",
"~.~.~.~.~.~.~.~.~.~.~.d P _ z.X.p h O.o.l. .S V D ( P 1.2.z t a d ~.~.~.~.~.~.~.~.~.~.~.~.~.~.~.~.~.",
"~.~.~.~.~.~.~.~.~.d K ]  .o.x.2.9 ; x  .B.( S D G ( ( ] *.=.D d e i ~.~.~.~.~.~.~.~.~.~.~.~.~.~.~.~.",
"~.~.~.~.~.~.~.~.d d i B D V ) %.W > 3 U j.] H H U *.$.) $.p.i.5.F a p ~.~.~.~.~.~.~.~.~.~.~.~.~.~.~.",
"~.~.~.~.~.~.V D z 1 X : 0 < V I 7.c i D _ L H D K ) -.:.-.8.u.C.S.;.Z e ~.~.~.~.~.~.~.~.B l M M ~.~.",
"~.~.~.~.~.K ] ] e 0 , m I.! C P m x V D D H H P K ` | 5.y.L.f.p.Y.Y.a.F d ~.~.~.~.~.V d j a a j M ~.",
"~.~.~.~.B o.M.] i ~ J.Q.!.K.K z s D K K H H K ` [ |  .( &.y.-.t.S.T.U.p./ g p ~.~.g g j j l a M M ~.",
"~.~.e e L l.k.o.u m R.W.E.0.K p B H H H H K U g.c.z.*.%.y.:./ ) +.K.U.U.D.$.j j d D D K H S V N ~.~.",
"~.~.a e D o.g.] B h n #.#.H D a D K H K H H K _ o.h.| =.D.:.%.%.:.f.f.s.T.S.I z S P ^ J K D j ~.~.~.",
"~.~.j d a l K ^ H C A V S L h a K H H H H K P P ( ] o.=.t.) +.O.%.f.y.y.8.t.) B H H H V t 2 ~.~.~.~.",
"~.~.~.B p p ^ ` _ L D J ` ( w d D D P K H K / ) +.) ( p.:.U / %.y.d.-.+.+.K z a C K V $ = + ~.~.~.~.",
"~.~.~.B l C o.o.h..._ ( .._ w B K H K D H K P ) -.t.t.L.8.s.y.,.L.s.) O.8.O.D z L _ 6 O @ ~.~.~.~.~.",
"~.~.~.~.B D ..h.k.l.o. .m.=.p D H H H K K D D G P / t.y.-.+.@.,.8.) P $.d.2.q.( ] o.B & @ ~.~.~.~.~.",
"~.~.~.~.f j ^ h.M.N.M.b.F.;.d A D H H K K O.) I D G -.U D H P :.;.{ K I $.P ]  .o. .L 6 & % ~.~.~.~.",
"~.~.~.~.~.f B ` g.M.M.M.G.' a B K P D K P +.,.&.U +.%.I I $.5.i.4.] V B a z a D ..o.^ V 5 2 ~.~.~.~.",
"~.~.~.~.~.~.j S _ z.k.v.Z.( e B ) %.z P _ ' 6.%.@.:.=.=.1.n.A.x.o.K V l ( / e 5 B _ ` _ L B y ~.~.~.",
"~.~.~.~.~.~.~.j A _ 3.n.m.( i B +.9.#.V  .X.3.*.2.w.3.3.v.m.z.h.P D S Z / ..B 7 e g _ ] _ ( M ~.~.~.",
"~.~.~.~.~.~.~.~.B V / 1.x.( e B / y.r.R | b.h.h.h.h.h.j.z.w.1.A z A i k ~.~.~.~.~.7 d H L L S M ~.~.",
"~.~.~.~.~.~.~.~.~.S S ' 3.G a V S -.H.n P j.k.k.h.h.j.o.} H D e l 4 ~.~.~.~.~.~.~.~.~.d D H S ~.~.~.",
"~.~.~.~.~.~.~.~.~.~.~.J J B a j B P W 3 s `  .o.o.o.` ( B l 7 r e ~.~.~.~.~.~.~.~.~.~.~.~.H ~.~.~.~.",
"~.~.~.~.~.~.~.~.~.~.~.~.~.f e < 7 a 5 @ < B S g u t t g 2 4 = ~.~.~.~.~.~.~.~.~.~.~.~.~.~.~.~.~.~.~.",
"~.~.~.~.~.~.~.~.~.~.~.~.~.~.e - % - < o $ 6 6 ~.~.~.~.~.~.~.~.~.~.~.~.~.~.~.~.~.~.~.~.~.~.~.~.~.~.~.",
"~.~.~.~.~.~.~.~.~.~.~.~.~.~.~.~.X     . ~.~.~.~.~.~.~.~.~.~.~.~.~.~.~.~.~.~.~.~.~.~.~.~.~.~.~.~.~.~.",
"~.~.~.~.~.~.~.~.~.~.~.~.~.~.~.~.~.~.~.~.~.~.~.~.~.~.~.~.~.~.~.~.~.~.~.~.~.~.~.~.~.~.~.~.~.~.~.~.~.~.",
"~.~.~.~.~.~.~.~.~.~.~.~.~.~.~.~.~.~.~.~.~.~.~.~.~.~.~.~.~.~.~.~.~.~.~.~.~.~.~.~.~.~.~.~.~.~.~.~.~.~.",
"~.~.~.~.~.~.~.~.~.~.~.~.~.~.~.~.~.~.~.~.~.~.~.~.~.~.~.~.~.~.~.~.~.~.~.~.~.~.~.~.~.~.~.~.~.~.~.~.~.~.",
"~.~.~.~.~.~.~.~.~.~.~.~.~.~.~.~.~.~.~.~.~.~.~.~.~.~.~.~.~.~.~.~.~.~.~.~.~.~.~.~.~.~.~.~.~.~.~.~.~.~.",
"~.~.~.~.~.~.~.~.~.~.~.~.~.~.~.~.~.~.~.~.~.~.~.~.~.~.~.~.~.~.~.~.~.~.~.~.~.~.~.~.~.~.~.~.~.~.~.~.~.~.",
"~.~.~.~.~.~.~.~.~.~.~.~.~.~.~.~.~.~.~.~.~.~.~.~.~.~.~.~.~.~.~.~.~.~.~.~.~.~.~.~.~.~.~.~.~.~.~.~.~.~.",
"~.~.~.~.~.~.~.~.~.~.~.~.~.~.~.~.~.~.~.~.~.~.~.~.~.~.~.~.~.~.~.~.~.~.~.~.~.~.~.~.~.~.~.~.~.~.~.~.~.~.",
"~.~.~.~.~.~.~.~.~.~.~.~.~.~.~.~.~.~.~.~.~.~.~.~.~.~.~.~.~.~.~.~.~.~.~.~.~.~.~.~.~.~.~.~.~.~.~.~.~.~.",
"~.~.~.~.~.~.~.~.~.~.~.~.~.~.~.~.~.~.~.~.~.~.~.~.~.~.~.~.~.~.~.~.~.~.~.~.~.~.~.~.~.~.~.~.~.~.~.~.~.~.",
"~.~.~.~.~.~.~.~.~.~.~.~.~.~.~.~.~.~.~.~.~.~.~.~.~.~.~.~.~.~.~.~.~.~.~.~.~.~.~.~.~.~.~.~.~.~.~.~.~.~.",
"~.~.~.~.~.~.~.~.~.~.~.~.~.~.~.~.~.~.~.~.~.~.~.~.~.~.~.~.~.~.~.~.~.~.~.~.~.~.~.~.~.~.~.~.~.~.~.~.~.~.",
"~.~.~.~.~.~.~.~.~.~.~.~.~.~.~.~.~.~.~.~.~.~.~.~.~.~.~.~.~.~.~.~.~.~.~.~.~.~.~.~.~.~.~.~.~.~.~.~.~.~."
};
