/* XPM */
static char *result[] = {
/* columns rows colors chars-per-pixel */
"50 50 216 2 ",
"   c #203F49",
".  c #28434C",
"X  c #30464D",
"o  c #294B55",
"O  c #354E55",
"+  c #27505F",
"@  c #36535A",
"#  c #3C535B",
"$  c #285768",
"%  c #355863",
"&  c #2A5F70",
"*  c #2B6477",
"=  c #336372",
"-  c #396979",
";  c #44595F",
":  c #465A61",
">  c #495D64",
",  c #4A6369",
"<  c #486A75",
"1  c #546B73",
"2  c #576C72",
"3  c #54737C",
"4  c #5B757D",
"5  c #63767B",
"6  c #35758A",
"7  c #30758C",
"8  c #337B92",
"9  c #387E94",
"0  c #497886",
"q  c #537783",
"w  c #577C86",
"e  c #417B90",
"r  c #637D85",
"t  c #3A839D",
"y  c #368AA7",
"u  c #3C8AA5",
"i  c #3C8FAA",
"p  c #3B91AD",
"a  c #3A94B3",
"s  c #3B96B5",
"d  c #3D9BBB",
"f  c #5C838D",
"g  c #458599",
"h  c #598796",
"j  c #68858C",
"k  c #73878D",
"l  c #668C96",
"z  c #778C92",
"x  c #69959B",
"c  c #6C969D",
"v  c #7A9499",
"b  c #438DA6",
"n  c #508BA0",
"m  c #4491AB",
"M  c #4B94AD",
"N  c #5798AB",
"B  c #469AB5",
"V  c #569CB2",
"C  c #6999A7",
"Z  c #739BA4",
"A  c #659FB1",
"S  c #4FA0B8",
"D  c #58A2B8",
"F  c #76A1A4",
"G  c #7EA4AD",
"H  c #62A1B6",
"J  c #6EA8B4",
"K  c #64A5B9",
"L  c #6BA7B9",
"P  c #73A4B3",
"I  c #79A9B7",
"U  c #3FA3C5",
"Y  c #48A5C4",
"T  c #41A9CC",
"R  c #57ACC6",
"E  c #5BB4CE",
"W  c #42ADD2",
"Q  c #43B1D6",
"!  c #46B8DE",
"~  c #59BAD8",
"^  c #6BADC1",
"/  c #6BB4C9",
"(  c #74B3C2",
")  c #7CB6C5",
"_  c #46BCE4",
"`  c #4ABDE4",
"'  c #51BEE2",
"]  c #7AC4DD",
"[  c #48C1E9",
"{  c #49C3EC",
"}  c #5AC4E5",
"|  c #57C7EB",
" . c #4AC7F1",
".. c #4CCBF5",
"X. c #53CDF6",
"o. c #5BCEF5",
"O. c #5DD0F5",
"+. c #66C8E8",
"@. c #62CEF3",
"#. c #64D1F6",
"$. c #6CD3F6",
"%. c #72D5F6",
"&. c #7AD6F6",
"*. c #7ED8F6",
"=. c #818F93",
"-. c #85969A",
";. c #859CA2",
":. c #8C9FA3",
">. c #909DA1",
",. c #88A4AB",
"<. c #97A6AA",
"1. c #82AFB3",
"2. c #99ADB2",
"3. c #89B3B9",
"4. c #97B7BA",
"5. c #A1ACB0",
"6. c #A6B8BB",
"7. c #B2BBBD",
"8. c #84B6C6",
"9. c #85BBC9",
"0. c #89BCC8",
"q. c #96BCC5",
"w. c #93BECB",
"e. c #A8BDC2",
"r. c #B4BDC0",
"t. c #85C2CD",
"y. c #8AC3CF",
"u. c #9AC3C6",
"i. c #92C3CE",
"p. c #9BC3CC",
"a. c #8BC9D3",
"s. c #97C6D2",
"d. c #93CBD3",
"f. c #9CCDD5",
"g. c #97D1D7",
"h. c #9ED2D9",
"j. c #ACC2C4",
"k. c #A6C4CB",
"l. c #A5C7CA",
"z. c #B9C5C8",
"x. c #AACCD5",
"c. c #A8CDD7",
"v. c #B5CDD3",
"b. c #AAD5D4",
"n. c #A4D4DB",
"m. c #ABD4DB",
"M. c #A3DADE",
"N. c #ADDADB",
"B. c #B3D6DD",
"V. c #BBD4D8",
"C. c #B3DCDB",
"Z. c #B5E0DE",
"A. c #8AD9E9",
"S. c #83D9F6",
"D. c #8CDBF6",
"F. c #94DDF6",
"G. c #9BDEF6",
"H. c #A6DDE0",
"J. c #ACDDE1",
"K. c #B6DCE2",
"L. c #BBDDE1",
"P. c #9EE0F6",
"I. c #ABE2E4",
"U. c #B4E4E4",
"Y. c #BBE4E5",
"T. c #B8E8E8",
"R. c #BCECEB",
"E. c #BEF0EE",
"W. c #A3E1F6",
"Q. c #ABE3F6",
"!. c #B3E5F6",
"~. c #BCE6F5",
"^. c #B6EEF3",
"/. c #BCE9F5",
"(. c #C1CBCD",
"). c #C0CFD4",
"_. c #CBD3D5",
"`. c #C6D5D8",
"'. c #C4DBDC",
"]. c #D4DBDD",
"[. c #C5DDE2",
"{. c #D7DFE1",
"}. c #C1E3E3",
"|. c #C8E6E6",
" X c #C2ECEB",
".X c #CBEDEC",
"XX c #D4E2E3",
"oX c #DCE2E3",
"OX c #D5E7E9",
"+X c #D3EDEC",
"@X c #DDEEED",
"#X c #C3F1EE",
"$X c #C9F1EE",
"%X c #D4F1EF",
"&X c #DBF0EF",
"*X c #C3EAF6",
"=X c #CBECF6",
"-X c #D4EDF6",
";X c #DBEFF6",
":X c #C5F6F2",
">X c #CBF5F1",
",X c #D3F4F1",
"<X c #DCF4F3",
"1X c #E2E5E7",
"2X c #E1EEED",
"3X c #EBEDEE",
"4X c #F8EFEF",
"5X c #E2F0EF",
"6X c #E4EFF0",
"7X c #E9EFF1",
"8X c #E3F3F4",
"9X c #EBF3F4",
"0X c #F2F4F5",
"qX c #F0F6F8",
"wX c #F5F9FA",
"eX c #FAFAFB",
/* pixels */
"4X4X4X4X4X4X4X4X4X4X4X4X4X4X4X4X4X4X4X0X3X4XwX0X9X4X4X9XwXeXeX4X4X4X4X4X4X4X4X4X4X4X4X4X4X4X4X4X4X4X",
"4X4X4X4X4X4X4X4X4X4X4X4X4X4X4XeX4X1Xz.=.4 z <.<.:.:.>.<.5.7.z.{.oX4XqXwXeX4X4X4X4X4X4X4X4X4X4X4X4X4X",
"4X4X4X4X4X4X4X4X4X4X4X4X4XeX1Xr.-.2 O X @ q l h h h w q 4 w j z k z -.2.z.1XwX4X4X4X4X4X4X4X4X4X4X4X",
"4X4X4X4X4X4X4X4X4X4X4X4X_.2.5 ; O # 3 v 6.j.j.l.x.w.8.I C N n l x j k 5 r k 7.3X4X4X4X4X4X4X4X4X4X4X",
"4X4X4X4X4X4X4X4X4X1X7.z , # # 1 z ,.v j 3 2 j e.=XE.^.E.=XR.U.H.d.0.1.1.x 4 k V.3X4X4X4X4X4X4X4X4X4X",
"4X4X4X4X4X4X4XoX5.5 : > 4 v u.-.< < 0 S R R E +.+.@.O.%.A.A.a.n.E.#XE.R.N.3.x j ,.XXwX4X4X4X4X4X4X4X",
"4X4X4X4X4X0Xr.5 : 2 -.4.V.OXj.O * T Q ! ! [ [ {  ... . .| Y i - b.:X:X:X#XZ.f.c < l v.wX4X4X4X4X4X4X",
"4X4X4X4X3X>.> : -.4.N.&X2X2X).1 = a W ! [ [ [ { [ [ ` ! W d 8 w Z.:X:X:X:X:X:XT.C % 0 v.4X4X4X4X4X4X",
"4X4X4X3X>.; 2 5.b. X%X&X&X&X@X`.,.h M B U U U Y d p t t - 3 I Z.:X:X:X:X:X:X:X>X|.x % < v.4X4X4X4X4X",
"4X4X3X<., 2 7.|.#X$X>X$X&X&X2X@XOXXXV.l.i.I F x x c F 1.u.I.E.:X:X:X:X:X:X:X>X,X,XY.h % r {.4X4X4X4X",
"4X4X7.: 2 5.|.%XE.E.:X:X:X>X&X2X2X2X&X@X%X#X#XR.E.E.#XE.E.:X:X:X:X:X:X:X:X>X<X8XqX;Xw.h , Z 7X4X4X4X",
"4X].2 > 4.|.2X&X$XR.E.#X:X>X$X&X&X2X&X&X%X,X>X>X>X>X$X>X:X:X:X:X:X>X>X,X<XqXqXqX9XR.f.w.h > r.4X4X4X",
"4X=.# :.Z.2X5X&X$XR.R.$X,X<X%X<X&X5X8X8X5X2X&X&X&X&X&X%X,X:X:X:X:X,X9X9X0X0X2X.XJ.J.*X.Xi.3 r 2X4X4X",
"].: 5 C.%X2X5X&XR.M.I.*X<X9X0X0X0X0X0X0X9X9X8X<X,X<X,X,X:X:X#XR.J.c.K.[.B.p.8.w.Y.:X>X$XT.q.q XX4X4X",
"7.X 5 }.2X&X&X$XY.( I h. X&X<X8X5X5X5X9X9X@X X X$X>XR.T.N.d.9.) ) 8.c.Y.[.[.c.9.U.>X>X%X>X}.l e.wX4X",
"<.X v XX2X5X%X#XM.L ) E.:X:X#XY.Z.Y.Z.&X2X2X+X#X:X:XE.:X:XU.f.i.s.B..X@X@X@XOX) g.>X>X>X>X XI ;.7X4X",
"5.O 1.@X5X&X:XE.y.D h.:X:X:X:X:X:X:X:X,X&X&X%X&X%X:X:X:X:X:X:X:X,X,X,X,X>X<X&Xc.h.<X,X>X,X>Xu.l 1X4X",
"5.> v.@X&X>X:XZ.K ( R.:X:X:X:X:X:X:X:X:X%X%X%X&X%X:X:X:X:X:X:X:X:X:X:X:X:X<X9XL.N.8X<X,X,X>XN.l [.4X",
"<.4 '.5X&X:XE.h.D g.E.:X:X:X:X:X:X:X:X:X#X:X$X&X%X:X:X:X#X:X:X:X:X:X:X:X>X8XqXY.R.<X<X,X,X>XY.r q.eX",
":.l |.5X>X:XR.t.I M.:X:X:X:X:X:X:X#XT.Z.b.4.4.4.j.u.u.u.n.N.Y.>X:X:X:X:X>X8XwX$XN.,X,X<X>X>X.XC Z 3X",
",.F |.%XZ.H.I.a.g.^.E.:X:X:X:X#XZ.4.f < @ o o o       . & 7 b ( E.:X:X:X>X8X0X,Xh.R.>X,X>X>X|.I r OX",
"2.G +X:XR.g.t.a.I.T.E.E.#X$Xn.V 9 * + + $ & * * * & $ + + = t u I T.:X:X:X>X9X<Xa.I.:X>X:XY.8.n q [.",
"u.4.+X:X:XE.M.a.] a.g.H.R.w.M 8 = * 7 8 t p d U B d a u t V N b u D U.>X:X:X>X:Xt.y.E.R.n.K m A q `.",
"j.l.$X%X%X%X:XT.I.h.g.g.0.t 6 7 t p Q Q [  ...#.%.o.{ { +.] V m u y M M.:X:X:X:Xg.0.d.) M V 0.p.w V.",
"l.x.$X>X&X&X&X%X>X:X:XU.n 7 8 y Q _ ......X.#.S.D.$.X.%.W.&.` U U p u M f.,X,X>Xt.K K ( d.J.#XZ.C v.",
"u.N.>X:X>X%X>X,X&X%X>X9.8 t s _ ..........#.D.W.&.@.%.W.P.#... .} ] K b M i.B.s.y.I.#X:X:XE.:XZ.8.e.",
"f.U.$X:X:X:X:X>X,X,XR.N 8 s _ ..........o.D.Q.G.$.$.G.~.&.X.X.O.G.~./ p M A L.=X:X:X>X$X>XR.>XZ.3.w.",
"c. X$X>X:X:X:X:X:X:Xh.g y _ ..........X.&.Q.W.$.$.F.*XG.#.X.%.!.-XW.| a i N J.=X:X,X8X2X<X X>XC.1.3.",
"n.E.:X:X:X:X:X:X:XR.L u U ............$.Q.Q.%.#.G.=X-X*XW.F.=X;X=X$.{ U i M d.:X>X,X9X8X%X#X>Xb.,.I ",
"n.E.:X:X:X:X:X:X>Xi.i d ............#.G.!.&.o.D.*X;X8X;X/.=X;X;X*.X...[ B u ( :X>X<X8X5X,X X>XC.Z P ",
"m.E.:X:X:X:X:X:X*XV a U ..........o.F.Q.D.o.%.~.;X8XqX;X-X;X8XG.X.....{ Y i ( :X>X8X,X5X,XR.>XC.c P ",
"n.R.:X:X:X:X:X:XT.y a _ ........X.S.Q.D.o.$.!.-X8XqX8X=X-X;X!.O.......o.~ m ( :X<X,X>X5X,XR.:Xb.l P ",
"B.T.>X:X:X:X:X:XZ.m U  .........$.G.G.#.#.G.-X;XqX8X=X~.-X!.#.......X.#.+.B ( :X,X>X>X@X%XT.:XN.l P ",
"B.Y.}.'.|.$X:X:XI.m U  .......O.S.G.$.o.D.~.=X8X8X=XQ.W.W.#.........#.%.@.Y ^ #X>X:X,X@X%Xn.#Xc.f P ",
"c.H.}.j.2.j.V.Z.H.B _  .....X.%.S.%.X.%.~.!.-X8X*X!.*.D.#.........O.&.%.O.T V ~.:X:X>X&X%X( f.P 6 C ",
"c.I  X}.j.;.v -.3.p [ { ....#.%.%.X.#.W.!.D.=X~.S.%.D.$.X.......X.$.&.%.X.U i H.:X:X>X>Xn.L J A f I ",
"|.L U.:X*X}.'.v.y.s {  ...X.#.$.X.X.S.~.&.#.D.$.#.*.&.X.........$.S.*.O..._ y ^ K.C.f.n. X$X.X`.C 8.",
"OX8.K.:X:X:X%X,XM.U { ....X.O.X.X.#.W.S.X.....X.%.*.X.........#.%.*.#.X. ._ y A c.c. X>X$X%X<XV.P q.",
"K.^ K.:X:X:X>X,Xn.d  ...........O.D.D.o.....X.#.*.o.........X.%.*.%.X... ._ p ^ |.,X:X:X%X&X#Xl.Z x.",
"OX9.h.:X:X:X:X>Xg.U ..........O.&.S.O.X.....o.S.o.X.......X.$.&.&.o..... ._ p s.<X>X>X$X%X.X'.z.l v.",
"qXm.8.U.>X:X:X:Xg.d { ........#.*.#.X.....X.%.#... .......#.*.S.#....... ._ a N.:X>X$X%XXXoX_.r.).8X",
"4X@XL 8. X:X:X:X] s ` ......X.$.#.X.....X.$.#.X..... ...X.$.&.$.X...X. . .[ B n.R. X.X{.].`.v.oX4X4X",
"4X4Xk.A D c.#X%XH p ` ......X.O.X.....X.#.#.X...........#.*.&.X....... . . .Y d.x.j.).].V.V.@X4X4X4X",
"4X4X{.,.0 g J y.H B | X.O.X.X.X... ...o.$.X.X.........o.%.*.O.X.......{ [  .D I 3.j.v.n.C.@X4X4X4X4X",
"4X4X4X1X2.3 - - g m } ..O.O.O.O.X.X.X.#.X...........X.$.&.#.X...X.O.o.} E R 0 Z 0.d.f.}.4X4X4X4X4X4X",
"4X4X4X4X0X_.,.3 < = i ' ....X.X.o.@.@.o.............O.%.$.X.| | | } E N f x 1.d.n.|.9X4X4X4X4X4X4X4X",
"4X4X4X4X4X4X4XoXz.:.j 0 g N S W Q } ' ` ` _ ` ` ` ' +.$.| ~ R S V N F 1.l.C.+X9XwX4X4X4X4X4X4X4X4X4X",
"4X4X4X4X4X4X4X4X4X0X5XoX_.`.`.j.q.,.c w 0 e e b m V ^ V V P 3.q.V.|.&X8XwX4X4X4X4X4X4X4X4X4X4X4X4X4X",
"4X4X4X4X4X4X4X4X4X4X4X4X4X4X4X4X4X3X1X{._.(.r.z.(.1X6X9X0X0X4X4X4X4X4X4X4X4X4X4X4X4X4X4X4X4X4X4X4X4X",
"4X4X4X4X4X4X4X4X4X4X4X4X4X4X4X4X4X4X4X4X4X4X4X4X4X4X4X4X4X4X4X4X4X4X4X4X4X4X4X4X4X4X4X4X4X4X4X4X4X4X"
};
