/* XPM */
static char *result[] = {
/* columns rows colors chars-per-pixel */
"50 50 209 2 ",
"   c #344145",
".  c #47595E",
"X  c #425459",
"o  c #505B5E",
"O  c #495D62",
"+  c #496269",
"@  c #53676D",
"#  c #597279",
"$  c #556F75",
"%  c #5C7B84",
"&  c #607F86",
"*  c #5F8088",
"=  c #66858F",
"-  c #788A8C",
";  c #678690",
":  c #6A8D95",
">  c #6C8B94",
",  c #738F98",
"<  c #718D95",
"1  c #6D919B",
"2  c #74919A",
"3  c #79939B",
"4  c #6F9AA5",
"5  c #7296A1",
"6  c #7499A4",
"7  c #7A9BA4",
"8  c #759EAA",
"9  c #789FAA",
"0  c #77A3AF",
"q  c #7BA3AE",
"w  c #7BA5B1",
"e  c #7EA9B5",
"r  c #7DAEB9",
"t  c #7DB1BC",
"y  c #7FB9C5",
"u  c #76F6FD",
"i  c #7CF6FD",
"p  c #83868A",
"a  c #8B8D8F",
"s  c #829295",
"d  c #89979A",
"f  c #989A9D",
"g  c #869CA2",
"h  c #8D9FA0",
"j  c #89A4AC",
"k  c #88A1A7",
"l  c #99A6A7",
"z  c #97A7A9",
"x  c #83AAB6",
"c  c #83AEBB",
"v  c #85A9B3",
"b  c #95ACB4",
"n  c #85B1BE",
"m  c #8CB1BC",
"M  c #98B1B7",
"N  c #9BB7BE",
"B  c #95B5BF",
"V  c #A2AAAE",
"C  c #A0A6A9",
"Z  c #A4B5B6",
"A  c #A5B7BE",
"S  c #A7BABD",
"D  c #B7BABE",
"F  c #85B4C1",
"G  c #8BB6C3",
"H  c #8DBAC4",
"J  c #85BCC9",
"K  c #8DBECB",
"L  c #86B9C4",
"P  c #92B7C1",
"I  c #94BAC4",
"U  c #9CBBC4",
"Y  c #93BECA",
"T  c #B1BFC4",
"R  c #A6BBC1",
"E  c #84C1CD",
"W  c #8FC2CF",
"Q  c #93C1CE",
"!  c #9CC0CC",
"~  c #85C5D3",
"^  c #8CC4D2",
"/  c #92C5D3",
"(  c #9AC6D3",
")  c #94C9D6",
"_  c #9DCBD5",
"`  c #94CBDB",
"'  c #9BCDDB",
"]  c #8ED4DE",
"[  c #96D2DF",
"{  c #9CD2DD",
"}  c #ABC4CA",
"|  c #B4C6CA",
" . c #B2C8CC",
".. c #BCC8CA",
"X. c #A5C7D1",
"o. c #A4C8D2",
"O. c #A2CFDA",
"+. c #ACCDD6",
"@. c #B5CDD3",
"#. c #BBCED2",
"$. c #B1CED8",
"%. c #ABD3DE",
"&. c #B6D3DA",
"*. c #BCD6DB",
"=. c #B6D9DF",
"-. c #BCD9DC",
";. c #BAD2D6",
":. c #9CD4E2",
">. c #92D8E2",
",. c #9BDBE3",
"<. c #9CDDEB",
"1. c #97D6E1",
"2. c #87DAE3",
"3. c #A4D5E3",
"4. c #AAD4E1",
"5. c #A2D9E7",
"6. c #A3DBEB",
"7. c #AADAE8",
"8. c #B7DAE2",
"9. c #91E2EC",
"0. c #9DE1E6",
"q. c #9BECF5",
"w. c #9AEFFF",
"e. c #95E5F1",
"r. c #82F6FD",
"t. c #8DF6FD",
"y. c #84F9FE",
"u. c #8CFCFF",
"i. c #85F0F7",
"p. c #93F4FE",
"a. c #9CF3FE",
"s. c #93F9FE",
"d. c #9CFAFE",
"f. c #ABE1EE",
"g. c #B2E2EC",
"h. c #BEE8E8",
"j. c #A6E4F3",
"k. c #ABE5F4",
"l. c #A5EAF6",
"z. c #ADECFC",
"x. c #A5EBF9",
"c. c #B1E6F3",
"v. c #B4EAF6",
"b. c #BCEAF4",
"n. c #B4EEFF",
"m. c #BAEEFE",
"M. c #BCE6F1",
"N. c #A4F3FE",
"B. c #ABF3FE",
"V. c #A4FAFE",
"C. c #ACF9FE",
"Z. c #A7F1F6",
"A. c #B4F3FF",
"S. c #BBF3FF",
"D. c #B4FAFE",
"F. c #BCF9FE",
"G. c #C3CED2",
"H. c #C2D9DD",
"J. c #CDD9DC",
"K. c #C2D5D9",
"L. c #D6DBDC",
"P. c #C4CACB",
"I. c #C4DCE2",
"U. c #CCDEE4",
"Y. c #DADEE1",
"T. c #D3DFE4",
"R. c #C5E5EC",
"E. c #CBE3E9",
"W. c #CCE1E4",
"Q. c #D2E3E6",
"!. c #DBE2E4",
"~. c #D2E6EA",
"^. c #DCE6E9",
"/. c #D5EAED",
"(. c #DCEAEC",
"). c #C4EDF3",
"_. c #CDECF2",
"`. c #C2EFFE",
"'. c #D5ECF1",
"]. c #DCEEF1",
"[. c #D2EFF8",
"{. c #C5F1F3",
"}. c #CCF4F7",
"|. c #C3F3FF",
" X c #CBF4FE",
".X c #C4FAFE",
"XX c #CCFAFE",
"oX c #D6F2F5",
"OX c #DCF3F6",
"+X c #D3F5FE",
"@X c #DBF6FD",
"#X c #D2FBFE",
"$X c #DCFBFE",
"%X c #E1E3E5",
"&X c #E2E7E9",
"*X c #E4E9EB",
"=X c #E9ECED",
"-X c #E4EEF2",
";X c #EAEEF0",
":X c #E4F3F5",
">X c #ECF2F3",
",X c #E4F6F9",
"<X c #E9F7F9",
"1X c #E3FCFE",
"2X c #EBFCFE",
"3X c #F2F5F6",
"4X c #F4FDFE",
"5X c #FCFEFE",
"6X c #F7F5F6",
/* pixels */
"S.n.S.3.x ,.V.F..XXX#X1XXX.X.XC.V.B.S.S.3./ q.u.p.m.n.A.7.v ' d.D..X.X+X$X$X.XXXD.V.N.S.S.v.Y ,.p.t.",
"A.n.A.:.w ,.V.V.C..X2X1X#X#XXXF.D..X}.XXo.1 >.d.a.A.n.A.6.w 1.V.V.V.F.1X2XXXXXXXF.D.F..X.XS.5 J d.d.",
"k.6.:./ 8 m ) O.~.(.^.^.&X*X&X%X!.J.#.@.h O 6 ' O.v.k.j.{ q B { { oX<X*X-X;X=X=X=X^.!.H.K.@.$ # / ` ",
"Y v 9 3 , , 3 3 b N P c I -.*.| S z s s d l Z | #.Y 0 5 : = = > < j M B x m ;.;. .S z d - - s d S } ",
"}././.:X:X:X,X,X<XOXb.:.l.D.#X1X,X:X:X<X5X5X4X4X2XR.E.E.E./././.'.-X'.b.:.<.D.XX1X:X-X^.(.<X4X4X4X4X",
"$X$X1X2X4X2X2X4X5X4X`.' 9.s.F. X#X1X$X$X$X@X@X@X#X1X1X2X4X4X4X4X5X5X4X#X3.<.s.C.XX#X1X1X1X1X1X1X1X1X",
"D.B.A.XX$XXXD.XX5X2Xv.^ 9.d.S.S.S. X X X|.m.S.|.|.D.D.D.XX$X#XD. X5X4X X) >.s.A.F.S.|.|. X X|.|.|.|.",
"S.B.|.@X2X1X|. X5X1Xv.) 0.V.S.S.|.XX+Xm.A.n.n.m.A.S.z.S.+X<X1XF.|.5X2X`./ 1.a.A.m.|. X@XXXm.m.n.m.A.",
"n.n. X+X@X$X`.|.4X@Xl.K :.F.|.S.B.N.w.a.a.N.B.B.z.n.n.XX@X1X<X X|.4X1Xn./ :.A.S.|.S.S.z.N.N.B.z.A.n.",
"S.A.A.S.|.F.A.S.1X$Xz.6 3 .X X|.S.S.S.S..XF.A.A.S.S.z.n.m.|.|.m.n.1X1Xn.F q S.|.m.z.N.N.w.a.N.N.N.N.",
"f.:.) / ^ ^ ^ / E.'.F + . ( +.4X5X5X3X3X3X!.H.W.Q.A.A.A.n.z.z.n.k.[.1XD.6 X k.b.@X2X<X2X2X4X4XoX X[.",
"! q 1 : 1 j A | Y.!.d p f V D 6X5X3X].T.#.U ! { 0.( x 6 1 1 5 q q #.^.3 @ o 3 g =X5X5X>X^.&X#.R } &.",
"9.] 4./ I '.}.#X1X4Xh.{.XX}.{.oX1X,X,X/.X.) l.a.u.) n n e v $.T.(.>X6XP...L.L.L.&X4X2X:X/.&.Q :.<.i.",
"d.F. X5.! #Xs.y..X1Xs.u.u.y.d.d.C.1X4XOXX.) S.XX.Xt.N. X5.U $XD.V..X4XC.V.V.V.V.A.F.+X4X2XI.Y n.A.C.",
"|.XXA.) m v.p.p..X#Xi u i t.s.r.d.$X$Xv.m J S.2X2XB. X|.:.G ).t.u C.2Xt.i r.i p.d.t.+X2X@X&.r k.XX2X",
"@X|.S.) w f.S.|.$X+Xp.p.a.C.a.p.C.|.F.<.c K A.$XXXXX XA.` x 7.B.B.XX$Xt.r.r.s.V.r.t..X$XB./ e j.XX2X",
"XX`.A./ w 6.A.S.@X1Xn.n.|.A.z.B.A.S.A.6.n Q v.D.s.#X|.S.` q 5.A.m.@X1Xz.N.B.A.N.N.z.F.n.z.K n f.F.#X",
" XS.A./ 4 :.A.m.+X+XF..XF.S.F.S.n.n.S.6.r F k.C.a. XS.A.` 9 :.A.m.+X1Xm.m.|.A.n.n.n.S.n.A.K G 7.A.p.",
"v.k.j.Y x 7.#X4X4X,X4.:.5.:.W J ~ ~ ~ ~ t L { [ 1. Xn.A.) 4 :.n.m.+X@XS.|.S.A.A.A.z.z.z.v.J 0 { z.N.",
"/ / ) 8.-X<X6X4X5X>XU w & ; m  .-.-.H.W.(.:X:X'._.c.6.6.) P 8.+X5X5X5X%.K / / H r y J J E J L _ ` ) ",
"_.oX@X2X4X4X2X2X1XS.z.[ % 9 oX1X$X2X$X#XXXXX.XXXXXQ Q ) 8.4X5X6X3X5X2X%.F % # x @.W.Q.Q./.:X4X4X2XOX",
"S.N.C.C.D.D.C.A.+XA.d.q.F I $XB.s.A.|.F.A.A.A.S.F.#X$X1X2X2X2X1X1X1XS.B.N.6 1 [.$X#X1X$XXX.XF.S.F..X",
"n.N.B.m.|.|.|. X XS.B.l.K G R.C.i N.m. X|.|. X X|.A.a.N.N.C.B.N.B.XXS.a.w./ r '.F.y.N.S..XA.A.A.A.S.",
"n.n.|.|.m.|.m.m.n.n.A.k./ c 3.C.p.z.n.n.A.n.m.m.n.n.B.A.S.|. XXX+XXXS.z.n.` x 8.S.i a.m. XXX X X X X",
"|.|.|.|.`.|.|.`.|.|.|.`.%.X.M.+X|.`.|.|.|. X X X Xn.n.|.|.|.m.m.n.n.n.n.n.' c ( n.p.N.n.z.n.n.n.S.m.",
"+X`. X X X|.|.|.`.XX[.4.X.M.|.|.|.|.|.|.|.`.|.|.|.n.m.m.n.n.n.n.n.n.S.n.k.:./ 5.m.n.n.n.n.n.S.m.|.n.",
"|.m.m.m.n.n.n.n.w.p.c.Y F 5.n.n.n.m.m.m.`.|.|.n.z.n.m.m.n.n.n.n.z.t.N.%.c / k.n.n.n.m.m.S.|.|.S.n.n.",
" X X X X X X|.n.t.y.{.+.r <.B.A. X X X|.|.S.A.C.B.|. X X X XXX`.N.i C.R.G / k.B.m. XXX|.|.|.S.A.N.n.",
"XXF.A.A.n.A..XF.C.s.XXR.w ) d.N.|..XB.D.D.A.C.V.C.F.S.A.n.B.F.|.S.s.C.$XI F q.a.A.#XA.C.D.A.C.C.V.S.",
"#X.X.XXXXXXX+X1X1X@XOX+.% w Z.A.#X2X2X2X4X2X,XOX_.XX.X.XXXXX#X$X1X$X$XoX7 % 1.n.F.1X,X2X4X4X1XOXoX).",
"OX_.].:X:X~.H.H.-.;.U 7 % 1 H I.5X5X6X4X>X~._ / W _.'.:X:X].W.H.-.-. .m ; * w U :X5X5X6X<X-X8./ / / ",
"g.` [ ) r y ^ ~ ~ E J ` 5.:.O.R.4X4X1Xb.Q c :.l.k.:.[ { L t E ~ ~ ~ J W :.5.' 4.1X4X4X#X7.x Y j.k.b.",
"C.a.A.' w Y A.n.n.S.F.S.F..X|. X@X|.n.k.F 0 7.F.|.a.V.k.F v 6.A.n.m.S.F.S.F.XXF.+X+XS.A.:.4 ^ A.S.XX",
"d.V.A.5.G ^ A.A.S.n.B.n.S.m.z. X1X XA.z.K e j.S.|.s.D.n./ F 6.A.S.n.A.z.n.|.v.A.1X@X`.A.6.w ) A.S.+X",
"F.1X.Xf.x / B.F.F.a.p.N.N.p.p.A.1X XA.v.K x j.|.XXXX$XA.Y c 0.A.|.C.t.a.C.a.p.p.+X@X|.A.f.w ) m.`.@X",
"1X4X}.j.v O..X1XF.r.t.s.r.u u V.1XC.t.B.O.c j.XX X2X2XS.J m v.$X$Xd.y.p.t.u u i #X.Xp.p.v.m ) m.XX|.",
".XXX.Xz.G I.2X4X.Xd.V.s.y.u.u.F.1Xs.y.D.I.Q A.XXV..XXXF.) X.OX4X1XC.d.d.u.u.u.u.1X.Xt.u.#X! 5.XXF.d.",
"N.u.q.j.Y I.,X2X$X@X{.}.XX}.h.oX5X#XXXoX&.G O.O.2.t.a.x.) X./.<X,X$XoX).}.XX).R.2X1XXX+X'.I / 4.] 9.",
"g.,._ U } U.^.>X5X6XL.C l s p D >XG.A M 6 : 1 6 c 0.{ U U ;.T.-X6X5X6XD V f p d !.!.T R j 1 > 2 q Q ",
"~.Q.U.J.;X3X>X6X5X5X~.Q 7   1 =.-XO.^ ) ^ Q ) ` 5.~.U.I.!.>X3X3X5X5X4X$./ . + F /.E./ ) ~ / ^ ) 3.f.",
"XXA.A.F.F.F.S.S.S.|. XXX3.% ) XX2X Xz.S.F.F.A.S.S.S.A.A..XF.F.S.S.S.|. X.X5 6 x.1X1XS.A.F.|.S.D.A.S.",
"`.z.B.N.a.w.a.N.B.S.F.|.k.K [ .X4X@XS.+X1X@XXXm.z.B.B.B.N.w.w.a.N.A.S.|.F.:.Y l.@X4X|.|.@X@X+X Xn.n.",
"|.n.n.n.n.m.|.#X|.|.m.C.w.' { XX4X2XS.XX<X1X+XA.z.S.m.n.n.n.S.+X X|.m.S.C.<./ v.1X5X X|.1X2X@X|.B.S.",
"+Xm.|.|.m.|. X X|.m.S.B.p.` { @X5X2XS.F.$X@XS.C.B.S.S.|.m.S. X}. Xm.A.S.d.9./ c.2X5XXXB.}.1XXXB.B.D.",
"@X#X@X$X$X1X$X$X$XXX.XV.t.:.7.1X5X5X2X2X4X4X2X1X$X#X@X$X$X$X$X$X$X#X+XF.s.e.{ |.4X5X4X2X2X4X2X1X$X$X",
"4X4X4X4X5X4X:X:X,X1X1XF.Z.:.7.XX,X<X2X:X:X:XOX'.'.2X4X4X5X5X2X-X:X1X2XXXD.j.:.b.OX<X2X,X,X:XOXOX/._.",
"J...| l l s s h Z | #.H.+.c m I M k 3 2 1 2 5 q n #.| S l d s s z S  .*.-.I c I N b 3 3 2 2 2 7 v Q ",
"8.( Y $ #  . .K.L.!.%X&X&X^.^.^.].-./ I q r :.5.j.O.' 3 + g #.#.J.Y.%X&X*X&X^.~.*X~._ _ c 8 / :.6.k.",
"B.a.a.n 6 |.XX|.F.F..X#X#X$X2X$XD.V.V.Z.n n z.D.A.a.d.] 1 o.XX|..XD.F.XXXX#X2X2X.XC.V.V.{ w 5.A.A.A.",
"C.u.s.:.I A.S.A.N.V.F.XX.X$X$XXX.XF.D.q.H Q v.S.v.s.u.q.Q 5.S.S.B.V.C.XX.XXX$X$XXXF.F.V.,.x 3.A.n.S."
};
