/* XPM */
static char *result[] = {
/* columns rows colors chars-per-pixel */
"50 50 136 2 ",
"   c #020202",
".  c #0B0504",
"X  c #090906",
"o  c #0B0B0B",
"O  c #141414",
"+  c #1C1414",
"@  c #1D1913",
"#  c #1B1B1B",
"$  c #221817",
"%  c #221E1E",
"&  c #2C1F18",
"*  c #38351D",
"=  c #232323",
"-  c #2A2727",
";  c #2C2B2B",
":  c #352D2D",
">  c #35322D",
",  c #3C3C2C",
"<  c #333232",
"1  c #3B3634",
"2  c #3B3B3B",
"3  c #462E25",
"4  c #463427",
"5  c #4E3123",
"6  c #493C2E",
"7  c #492F30",
"8  c #453E3B",
"9  c #503F39",
"0  c #514D26",
"q  c #4B423D",
"w  c #5B4237",
"e  c #53443B",
"r  c #6F4D3B",
"t  c #444343",
"y  c #4B4645",
"u  c #4C4C4C",
"i  c #594945",
"p  c #534E4C",
"a  c #545454",
"s  c #5A5452",
"d  c #5C5B5B",
"f  c #6D4446",
"g  c #624C41",
"h  c #735B4E",
"j  c #605B5B",
"k  c #6C625F",
"l  c #636363",
"z  c #696767",
"x  c #6C6C6C",
"c  c #716563",
"v  c #716D6A",
"b  c gray45",
"n  c #797676",
"m  c #7C7B7B",
"M  c #97261D",
"N  c #A01E24",
"B  c #F91820",
"V  c #ED2429",
"C  c #84543C",
"Z  c #AE6036",
"A  c #EF6E32",
"S  c #E07D3F",
"D  c #A3684B",
"F  c #B06F51",
"G  c #807D7D",
"H  c #927B72",
"J  c #E2494B",
"K  c #CB7E5A",
"L  c #9F933C",
"P  c #B1A73F",
"I  c #99935A",
"U  c #A79F4E",
"Y  c #BFA54D",
"T  c #A3887A",
"R  c #B7907D",
"E  c #D8845E",
"W  c #C1BC46",
"Q  c #DBA95A",
"!  c #DC8E66",
"~  c #DB9B7C",
"^  c #E18F65",
"/  c #E3936D",
"(  c #F29B6D",
")  c #FA9B6E",
"_  c #EA9C76",
"`  c #FD9F72",
"'  c #FEA273",
"]  c #F4A67E",
"[  c #FEA67A",
"{  c #F1A878",
"}  c #D0C553",
"|  c #D7DC57",
" . c #E0D453",
".. c #FFF357",
"X. c #FDF75A",
"o. c #FEFD5D",
"O. c #EEC562",
"+. c #FFFF62",
"@. c #848484",
"#. c #8A8687",
"$. c #888887",
"%. c #8C8C8C",
"&. c #9E8C86",
"*. c #918E8E",
"=. c #949494",
"-. c #989696",
";. c #9C9C9C",
":. c #AE9386",
">. c #A0918C",
",. c #B69094",
"<. c #A4A4A4",
"1. c #A8A7A7",
"2. c #ADADAD",
"3. c #B3ADA9",
"4. c #B4B4B4",
"5. c #BABABA",
"6. c #DBA88F",
"7. c #D6BEB2",
"8. c #C5C0BF",
"9. c #C4C4C4",
"0. c #CCCCCC",
"q. c #D4D3D3",
"w. c #DBDBDB",
"e. c #E8D1D3",
"r. c #F2D8DB",
"t. c #DFE1E1",
"y. c #E3E3E3",
"u. c #EBEBEB",
"i. c #F1EAE6",
"p. c #FFEDE2",
"a. c #F0EFEF",
"s. c #F9F1ED",
"d. c #F4F4F4",
"f. c #F8F5F5",
"g. c #FAF8F6",
"h. c #FDFDFD",
/* pixels */
"f.f.f.f.f.f.f.f.f.f.f.f.f.f.f.f.f.f.f.f.f.f.f.f.f.f.f.f.f.f.f.f.f.f.f.f.f.f.f.f.f.f.f.f.f.f.f.f.f.f.",
"f.f.f.f.f.f.f.f.f.f.f.f.f.f.f.f.f.f.f.f.f.f.f.f.f.f.f.f.f.f.f.f.f.f.f.f.f.f.f.f.f.f.f.f.f.f.f.f.f.f.",
"f.f.f.f.f.f.f.f.f.f.f.f.f.f.f.f.f.f.f.f.f.f.f.f.f.d.f.f.f.f.f.f.f.f.f.f.f.f.f.f.f.f.f.f.f.f.f.f.f.f.",
"f.f.f.f.f.f.f.f.f.f.f.f.f.f.f.f.f.f.f.0.%.2 O a 4.9.u.d.f.f.f.f.f.f.f.f.f.f.f.f.f.f.f.f.f.f.f.f.f.f.",
"f.f.f.f.f.f.f.f.f.f.f.f.f.f.f.g.d.q.<.2 o         = l ;.f.f.f.f.f.f.f.f.f.f.f.f.f.f.f.f.f.f.f.f.f.f.",
"f.f.f.f.f.f.f.f.f.f.f.f.f.f.0.;.G u - o o           X O 1 b w.f.f.f.f.f.f.f.f.f.f.f.f.f.f.f.f.f.f.f.",
"f.f.f.f.f.f.f.f.f.f.f.f.f.g.q.9.l = #                     # o x f.f.f.f.f.f.f.f.f.f.f.f.f.f.f.f.f.f.",
"f.f.f.f.f.f.f.f.f.f.f.f.f.f.f.q.t o X                       o   - 9.f.f.f.f.f.f.f.f.f.f.f.f.f.f.f.f.",
"f.f.f.f.f.f.f.f.f.f.f.f.f.f.f.x                     o X #   X o   d f.f.f.f.f.f.f.f.f.f.f.f.f.f.f.f.",
"f.f.f.f.f.f.f.f.f.f.f.f.f.f.4.#                 o O t @.m < X #   2 d.f.f.f.f.f.f.f.f.f.f.f.f.f.f.f.",
"f.f.f.f.f.f.f.f.f.f.f.f.f.f.=.X               o ; x 9.u.t.%.t X o z a.f.f.f.f.f.f.f.f.f.f.f.f.f.f.f.",
"f.f.f.f.f.f.f.f.f.f.f.f.f.f.0.;               % 2 =.w.h.a.d.@.o O u %.f.f.f.f.f.f.f.f.f.f.f.f.f.f.f.",
"f.f.f.f.f.f.f.f.f.f.f.f.f.f.f.d               O 2 m h.q.< < %.; o = 2.g.f.f.f.f.f.f.f.f.f.f.f.f.f.f.",
"f.f.f.f.f.f.f.f.f.f.f.f.f.f.f.x       X       X 2 x h.y.d % x :   ; 2.g.f.f.f.f.f.f.f.f.f.f.f.f.f.f.",
"f.f.f.f.f.f.f.f.f.f.f.f.f.f.f.q.;   X X X     X 7 f e.r.,.p u r 5 p 0.f.f.f.f.f.f.f.f.f.f.f.f.f.f.f.",
"f.f.f.f.f.f.f.f.f.f.f.f.f.f.u.5.2 o X O ; X . . N B V J M 6 h { [ C q 8.f.f.f.f.f.f.f.f.f.f.f.f.f.f.",
"f.f.f.f.f.f.f.f.f.f.f.f.f.u.u     O ; @.a     @ Z A A S Y W Q ) ` [ R v 0.f.f.f.f.f.f.f.f.f.f.f.f.f.",
"f.f.f.f.f.f.f.f.f.f.f.f.u.a     = -.h.5.a     q | o.o.o.o.+.O.K E ` p.s.s w.f.f.f.f.f.f.f.f.f.f.f.f.",
"f.f.f.f.f.f.f.f.f.f.f.f.$.# o # 0.h.=.< ; O o > U X.o...o.X.L 4 H T 7.h.g m f.f.f.f.f.f.f.f.f.f.f.f.",
"f.f.f.f.f.f.f.f.f.f.f.0.t u O 4.d.<.o 2 O =     o 0 P  .} I , # 9.d.3.2.1 d f.f.f.f.f.f.f.f.f.f.f.f.",
"f.f.f.f.f.f.f.f.f.f.h.G a d ; 0.m   2 -.t =         @ * X o %.o z u.f.h.4.5.f.f.f.f.f.f.f.f.f.f.f.f.",
"f.f.f.f.f.f.f.f.f.f.q.t z = a x O 2 w.w.l O o t           o d = o ;.f.f.g.f.f.f.f.f.f.f.f.f.f.f.f.f.",
"f.f.f.f.f.f.f.f.f.f.9.2 d   - O O t %.u = o o d @.      o   y 5.z 2 q.f.f.f.f.f.f.f.f.f.f.f.f.f.f.f.",
"f.f.f.f.f.f.f.f.f.g.9.; <       # a # o       X <.#       o l h.1.O *.f.f.f.f.f.f.f.f.f.f.f.f.f.f.f.",
"f.f.f.f.f.f.f.f.f.f.5.O O       O d -           u =.      O 2 y.9.; b f.f.f.f.f.f.f.f.f.f.f.f.f.f.f.",
"f.f.f.f.f.f.f.f.f.f.5.X O     o u ;.;           t 0.=     o y u.q.< l 9.f.f.f.f.f.f.f.f.f.f.f.f.f.f.",
"f.f.f.f.f.f.f.f.f.a.x O #     O 4.-.#           =.5.;   o b t.g.h.x l <.f.f.f.f.f.f.f.f.f.f.f.f.f.f.",
"f.f.f.f.f.f.f.f.f.y.<         # 9.*.=         # 4.2.#   l u.h.d.h.G a #.f.f.f.f.f.f.f.f.f.f.f.f.f.f.",
"f.f.f.f.f.f.f.f.f.u.=         ; 0.%.#   o o o b q.u X t t.h.d.d.h.;.p #.a.f.f.f.f.f.f.f.f.f.f.f.f.f.",
"f.f.f.f.f.f.f.f.f.f.t     X   a w.=.#     X < 9.9.< # <.h.f.d.u.h.1.l v u.f.f.f.f.f.f.f.f.f.f.f.f.f.",
"f.f.f.f.f.f.f.f.f.f.@.    o X b w.;.O       =.0.t = < q.h.d.d.d.h.@.n a y.f.f.f.f.f.f.f.f.f.f.f.f.f.",
"f.f.f.f.f.f.f.f.f.f.9.X X     $.t.2.#     l t.m O O 2 t.h.a.f.h.w.y n d d.f.f.f.f.f.f.f.f.f.f.f.f.f.",
"f.f.f.f.f.f.f.f.f.f.w.t       l 0.9.t X d t.4.o o o 2 y.h.g.g.q.j ; -.z f.f.f.f.f.f.f.f.f.f.f.f.f.f.",
"f.f.f.f.f.f.f.f.f.f.d.G o     a 9.w.m m u.9.<       t y.h.g.w.m 2 G @.@.f.f.f.f.f.f.f.f.f.f.f.f.f.f.",
"f.f.f.f.f.f.f.f.f.f.f.;.      G y.w.9.u.4.t         < 0.d.u.u.*.m q.a 0.f.f.f.f.f.f.f.f.f.f.f.f.f.f.",
"f.f.f.f.f.f.f.f.f.f.f.5.X     %.g.u.q.=.=           X x t.h.q.;.q.4.y f.f.f.f.f.f.f.f.f.f.f.f.f.f.f.",
"f.f.f.f.f.f.f.f.f.f.u.;.#     t 9.u.2.o             # -.d.q.m 4.d.u 0.g.f.f.f.f.f.f.f.f.f.f.f.f.f.f.",
"f.f.f.f.f.f.f.f.f.q.l u =   o   < a -             # G g.t.u u 1.z =.f.f.f.f.f.f.f.f.f.f.f.f.f.f.f.f.",
"f.f.f.f.f.f.f.f.f.9.2 O O o   X               X % l y.0.= ; =.x ;.f.f.f.f.f.f.f.f.f.f.f.f.f.f.f.f.f.",
"f.f.f.f.f.f.f.f.f.w.a - o o                     # d u O O < y y.g.g.f.f.f.f.f.f.f.f.f.f.f.f.f.f.f.f.",
"f.f.f.f.f.f.f.f.f.f.1.2 # o           X X - o # O # % y %.y.f.f.f.f.f.f.f.f.f.f.f.f.f.f.f.f.f.f.f.f.",
"f.f.f.f.f.f.f.f.f.f.h.0.-.<.@.#       % u = - ;.$.4.u.f.f.f.f.f.f.f.f.f.f.f.f.f.f.f.f.f.f.f.f.f.f.f.",
"f.f.f.f.f.f.f.f.f.f.f.f.d.h.g.w.9.q   & ! E = u.u.f.f.f.f.f.f.f.f.f.f.f.f.f.f.f.f.f.f.f.f.f.f.f.f.f.",
"f.f.f.f.f.f.f.f.f.f.f.f.f.f.f.f.g.h . . ( ` o <.h.f.f.f.f.f.f.f.f.f.f.f.f.f.f.f.f.f.f.f.f.f.f.f.f.f.",
"f.f.f.f.f.f.f.f.f.f.f.f.f.f.d.f.i.e   C ` [ w 5 3 $ + : x q.d.f.f.f.f.f.f.f.f.f.f.f.f.f.f.f.f.f.f.f.",
"f.f.f.f.f.f.f.f.f.f.f.f.f.f.f.f.@.= D ) ' ' ' ' [ ] ~ :.c + *.f.f.f.f.f.f.f.f.f.f.f.f.f.f.f.f.f.f.f.",
"f.f.f.f.f.f.f.f.f.f.f.f.f.f.f.f.#.9 F ^ ^ / _ _ / ! 6.w.d.m = 9.f.f.f.f.f.f.f.f.f.f.f.f.f.f.f.f.f.f.",
"f.f.f.f.f.f.f.f.f.f.f.f.f.f.f.f.u.#.y 8 1 i &.>.k < 1 m q.$.%.h.f.f.f.f.f.f.f.f.f.f.f.f.f.f.f.f.f.f.",
"f.f.f.f.f.f.f.f.f.f.f.f.f.f.f.f.f.f.f.f.f.f.f.f.f.f.f.f.f.f.f.f.f.f.f.f.f.f.f.f.f.f.f.f.f.f.f.f.f.f.",
"f.f.f.f.f.f.f.f.f.f.f.f.f.f.f.f.f.f.f.f.f.f.f.f.f.f.f.f.f.f.f.f.f.f.f.f.f.f.f.f.f.f.f.f.f.f.f.f.f.f."
};
