/* XPM */
static char *result[] = {
/* columns rows colors chars-per-pixel */
"50 50 141 2 ",
"   c #020202",
".  c #0B0504",
"X  c #090906",
"o  c #0B0B0B",
"O  c #141414",
"+  c #1D1913",
"@  c #1B1B1B",
"#  c #1C1414",
"$  c #221817",
"%  c #221E1E",
"&  c #2C1F18",
"*  c #38351D",
"=  c #232323",
"-  c #2A2727",
";  c #2C2B2B",
":  c #352D2D",
">  c #35322D",
",  c #3C3C2C",
"<  c #333232",
"1  c #3B3634",
"2  c #3B3B3B",
"3  c #462E25",
"4  c #463427",
"5  c #4E3123",
"6  c #403E27",
"7  c #493C2E",
"8  c #492F30",
"9  c #453E3B",
"0  c #503F39",
"q  c #514D26",
"w  c #4B423D",
"e  c #5B4237",
"r  c #53443B",
"t  c #6F4D3B",
"y  c #444343",
"u  c #4B4645",
"i  c #4C4C4C",
"p  c #504946",
"a  c #594945",
"s  c #534E4C",
"d  c #545454",
"f  c #5C5B5B",
"g  c #5A5452",
"h  c #624C41",
"j  c #6D4446",
"k  c #735B4E",
"l  c #605B5B",
"z  c #7B6149",
"x  c #6C625F",
"c  c #636363",
"v  c #696767",
"b  c #6C6C6C",
"n  c #716D6A",
"m  c #716563",
"M  c gray45",
"N  c #797676",
"B  c #7C7B7B",
"V  c #97261D",
"C  c #A01E24",
"Z  c #F91820",
"A  c #ED2429",
"S  c #88543C",
"D  c #84543C",
"F  c #AE6036",
"G  c #EF6E32",
"H  c #E07D3F",
"J  c #F77038",
"K  c #A3684B",
"L  c #B06F51",
"P  c #807D7D",
"I  c #927B72",
"U  c #E2494B",
"Y  c #CB7E5A",
"T  c #9F933C",
"R  c #B1A73F",
"E  c #99935A",
"W  c #A79F4E",
"Q  c #BFA54D",
"!  c #A3887A",
"~  c #B7907D",
"^  c #D8845E",
"/  c #C1BC46",
"(  c #DBA95A",
")  c #DC8E66",
"_  c #DB9B7C",
"`  c #E18F65",
"'  c #E3936D",
"]  c #FA9B6E",
"[  c #F29B6D",
"{  c #EA9C76",
"}  c #FD9F72",
"|  c #FEA273",
" . c #F4A67E",
".. c #FEA67A",
"X. c #F1A878",
"o. c #D0C553",
"O. c #D7DC57",
"+. c #E0D453",
"@. c #FFF357",
"#. c #FDF75A",
"$. c #FEFD5D",
"%. c #EEC562",
"&. c #FFFF62",
"*. c #848484",
"=. c #8A8687",
"-. c #888887",
";. c #8C8C8C",
":. c #9E8C86",
">. c #918E8E",
",. c #949494",
"<. c #989696",
"1. c #9C9C9C",
"2. c #AE9386",
"3. c #A0918C",
"4. c #B69094",
"5. c #A4A4A4",
"6. c #A8A7A7",
"7. c #ADADAD",
"8. c #B0AAA7",
"9. c #B3ADA9",
"0. c #B4B4B4",
"q. c #BABABA",
"w. c #DBA88F",
"e. c #D6BEB2",
"r. c #C5C0BF",
"t. c #C4C4C4",
"y. c #CCCCCC",
"u. c #D4D3D3",
"i. c #DBDBDB",
"p. c #E8D1D3",
"a. c #F2D8DB",
"s. c #DFE1E1",
"d. c #E3E3E3",
"f. c #EBEBEB",
"g. c #F1EAE6",
"h. c #FFEDE2",
"j. c #F0EFEF",
"k. c #F9F1ED",
"l. c #F4F4F4",
"z. c #FAF8F6",
"x. c #FFFFFF",
/* pixels */
"x.x.x.x.x.x.x.x.x.x.x.x.x.x.x.x.x.x.x.x.x.x.x.x.x.x.x.x.x.x.x.x.x.x.x.x.x.x.x.x.x.x.x.x.x.x.x.x.x.x.",
"x.x.x.x.x.x.x.x.x.x.x.x.x.x.x.x.x.x.x.x.x.x.x.x.x.x.x.x.x.x.x.x.x.x.x.x.x.x.x.x.x.x.x.x.x.x.x.x.x.x.",
"x.x.x.x.x.x.x.x.x.x.x.x.x.x.x.x.x.x.x.x.x.x.x.x.x.x.x.x.x.x.x.x.x.x.x.x.x.x.x.x.x.x.x.x.x.x.x.x.x.x.",
"x.x.x.x.x.x.x.x.x.x.x.x.x.x.x.x.x.x.x.y.;.2 O d 0.t.f.x.x.x.x.x.x.x.x.x.x.x.x.x.x.x.x.x.x.x.x.x.x.x.",
"x.x.x.x.x.x.x.x.x.x.x.x.x.x.x.x.l.u.5.2 o         = c 1.z.x.x.x.x.x.x.x.x.x.x.x.x.x.x.x.x.x.x.x.x.x.",
"x.x.x.x.x.x.x.x.x.x.x.x.x.z.y.1.B i - o X           X O 1 M u.x.x.x.x.x.x.x.x.x.x.x.x.x.x.x.x.x.x.x.",
"x.x.x.x.x.x.x.x.x.x.x.x.x.z.u.t.v = @                     O O b x.x.x.x.x.x.x.x.x.x.x.x.x.x.x.x.x.x.",
"x.x.x.x.x.x.x.x.x.x.x.x.x.x.x.u.y X X                       o   = t.x.x.x.x.x.x.x.x.x.x.x.x.x.x.x.x.",
"x.x.x.x.x.x.x.x.x.x.x.x.x.x.x.b                     o o @   X o   f x.x.x.x.x.x.x.x.x.x.x.x.x.x.x.x.",
"x.x.x.x.x.x.x.x.x.x.x.x.x.x.0.@                 o O 2 *.B < X @   2 z.x.x.x.x.x.x.x.x.x.x.x.x.x.x.x.",
"x.x.x.x.x.x.x.x.x.x.x.x.x.x.,.X             X X ; b t.f.s.;.y X o v f.x.x.x.x.x.x.x.x.x.x.x.x.x.x.x.",
"x.x.x.x.x.x.x.x.x.x.x.x.x.x.y.;               @ 2 ,.i.x.j.l.-.o @ y ;.x.x.x.x.x.x.x.x.x.x.x.x.x.x.x.",
"x.x.x.x.x.x.x.x.x.x.x.x.x.x.x.f               O 2 B x.u.< < ;.; X = 0.x.x.x.x.x.x.x.x.x.x.x.x.x.x.x.",
"x.x.x.x.x.x.x.x.x.x.x.x.x.x.x.b       X       X 2 b x.s.f % b :   < 7.x.x.x.x.x.x.x.x.x.x.x.x.x.x.x.",
"x.x.x.x.x.x.x.x.x.x.x.x.x.x.x.u.;   X X X     . 8 j p.a.4.p p j 5 s y.z.x.x.x.x.x.x.x.x.x.x.x.x.x.x.",
"x.x.x.x.x.x.x.x.x.x.x.x.x.x.f.q.2 o X O ;   X . C Z A U V w z X.| S w t.x.x.x.x.x.x.x.x.x.x.x.x.x.x.",
"x.x.x.x.x.x.x.x.x.x.x.x.x.f.i     O ; *.d     + F G G H Q / ( ] } ..~ n y.x.x.x.x.x.x.x.x.x.x.x.x.x.",
"x.x.x.x.x.x.x.x.x.x.x.x.f.d     = <.x.q.d     w O.$.$.$.$.&.%.Y ^ | h.k.g i.x.x.x.x.x.x.x.x.x.x.x.x.",
"x.x.x.x.x.x.x.x.x.x.x.x.-.@ o @ t.x.,.< ; @ o > W #.#.@.$.#.T 4 I ! e.x.h B x.x.x.x.x.x.x.x.x.x.x.x.",
"x.x.x.x.x.x.x.x.x.x.x.y.y i O 0.l.5.o 2 o =     o q R +.o.E , @ t.l.8.7.1 f x.x.x.x.x.x.x.x.x.x.x.x.",
"x.x.x.x.x.x.x.x.x.x.z.P d f ; y.B   2 <.y = o       + * X o ;.o v f.x.z.0.q.x.x.x.x.x.x.x.x.x.x.x.x.",
"x.x.x.x.x.x.x.x.x.x.u.y v = d b O 2 i.s.c o o 2           o f = X <.z.x.x.x.x.x.x.x.x.x.x.x.x.x.x.x.",
"x.x.x.x.x.x.x.x.x.x.t.y f   - O O y ;.i = o o f -.      o   u q.b y u.x.x.x.x.x.x.x.x.x.x.x.x.x.x.x.",
"x.x.x.x.x.x.x.x.x.x.t.; <       @ d @ o X     o 5.@       o c x.5.O >.z.x.x.x.x.x.x.x.x.x.x.x.x.x.x.",
"x.x.x.x.x.x.x.x.x.x.q.O O       O f -           u ,.      O 2 d.t.; M l.x.x.x.x.x.x.x.x.x.x.x.x.x.x.",
"x.x.x.x.x.x.x.x.x.x.q.o O X   X i 1.;           y y.=     o y f.u.1 c t.x.x.x.x.x.x.x.x.x.x.x.x.x.x.",
"x.x.x.x.x.x.x.x.x.f.b O O X   O 0.<.@           ,.q.;   o M d.z.x.v c 5.x.x.x.x.x.x.x.x.x.x.x.x.x.x.",
"x.x.x.x.x.x.x.x.x.d.<         @ t.>.=         @ q.6.@   c f.x.l.x.P g *.z.x.x.x.x.x.x.x.x.x.x.x.x.x.",
"x.x.x.x.x.x.x.x.x.f.=         ; y.;.@   o o o M y.i X y s.x.l.j.x.1.s *.f.x.x.x.x.x.x.x.x.x.x.x.x.x.",
"x.x.x.x.x.x.x.x.x.z.y     X   d i.,.@     X < t.y.< @ 6.x.z.j.j.x.6.c b f.x.x.x.x.x.x.x.x.x.x.x.x.x.",
"x.x.x.x.x.x.x.x.x.x.*.    o X M i.1.O       ,.y.y = < u.x.l.l.l.x.*.B d f.x.x.x.x.x.x.x.x.x.x.x.x.x.",
"x.x.x.x.x.x.x.x.x.x.t.X X     -.s.7.@     c s.B O O 2 i.x.j.l.x.i.u N d l.x.x.x.x.x.x.x.x.x.x.x.x.x.",
"x.x.x.x.x.x.x.x.x.x.i.y       c y.t.y X f s.0.o o o 2 d.x.l.z.i.f - <.b x.x.x.x.x.x.x.x.x.x.x.x.x.x.",
"x.x.x.x.x.x.x.x.x.x.z.B X     d t.i.B B f.t.<       2 f.x.z.i.B 1 P P *.x.x.x.x.x.x.x.x.x.x.x.x.x.x.",
"x.x.x.x.x.x.x.x.x.x.x.1.      B d.i.t.f.0.y         < y.l.f.f.>.N u.f y.x.x.x.x.x.x.x.x.x.x.x.x.x.x.",
"x.x.x.x.x.x.x.x.x.x.x.q.X     ;.z.f.u.,.=           X b i.x.u.1.u.0.u x.x.x.x.x.x.x.x.x.x.x.x.x.x.x.",
"x.x.x.x.x.x.x.x.x.x.f.1.@     u t.f.7.o             @ ,.l.u.B 0.l.i y.x.x.x.x.x.x.x.x.x.x.x.x.x.x.x.",
"x.x.x.x.x.x.x.x.x.u.c i =   X   < d -             @ B x.s.i s 6.v ,.x.x.x.x.x.x.x.x.x.x.x.x.x.x.x.x.",
"x.x.x.x.x.x.x.x.x.t.2 O O o                   o % c f.y.= ; >.b 1.x.x.x.x.x.x.x.x.x.x.x.x.x.x.x.x.x.",
"x.x.x.x.x.x.x.x.x.i.d ; o o                     @ f i o O < i d.x.x.x.x.x.x.x.x.x.x.x.x.x.x.x.x.x.x.",
"x.x.x.x.x.x.x.x.x.l.7.2 @ X         . X   ; o @ O @ % y -.f.x.x.x.x.x.x.x.x.x.x.x.x.x.x.x.x.x.x.x.x.",
"x.x.x.x.x.x.x.x.x.x.z.y.<.5.*.@       @ i = - 1.-.0.f.z.x.x.x.x.x.x.x.x.x.x.x.x.x.x.x.x.x.x.x.x.x.x.",
"x.x.x.x.x.x.x.x.x.x.x.x.l.x.z.i.t.w   & ) ^ = f.f.z.x.x.x.x.x.x.x.x.x.x.x.x.x.x.x.x.x.x.x.x.x.x.x.x.",
"x.x.x.x.x.x.x.x.x.x.x.f.x.x.x.x.z.k . . [ | o 5.z.x.x.x.x.x.x.x.x.x.x.x.x.x.x.x.x.x.x.x.x.x.x.x.x.x.",
"x.x.x.x.x.x.x.x.x.x.x.x.x.z.l.x.g.r   D ] ..e 5 3 & $ : v u.x.x.x.x.x.x.x.x.x.x.x.x.x.x.x.x.x.x.x.x.",
"x.x.x.x.x.x.x.x.x.x.x.x.x.x.x.x.*.= K ] | | | | ..w._ 2.m # >.x.x.x.x.x.x.x.x.x.x.x.x.x.x.x.x.x.x.x.",
"x.x.x.x.x.x.x.x.x.x.x.x.x.x.x.x.-.0 L ) ` ' { { ' ) w.p.l.B - t.x.x.x.x.x.x.x.x.x.x.x.x.x.x.x.x.x.x.",
"x.x.x.x.x.x.x.x.x.x.x.x.x.x.x.x.f.=.u w 1 a :.3.x > 1 B u.-.;.z.x.x.x.x.x.x.x.x.x.x.x.x.x.x.x.x.x.x.",
"x.x.x.x.x.x.x.x.x.x.x.x.x.x.x.x.x.x.x.x.x.x.x.x.x.x.x.x.x.x.x.x.x.x.x.x.x.x.x.x.x.x.x.x.x.x.x.x.x.x.",
"x.x.x.x.x.x.x.x.x.x.x.x.x.x.x.x.x.x.x.x.x.x.x.x.x.x.x.x.x.x.x.x.x.x.x.x.x.x.x.x.x.x.x.x.x.x.x.x.x.x."
};
